<svg id="Group_30205" data-name="Group 30205" xmlns="http://www.w3.org/2000/svg" xmlns:xlink="http://www.w3.org/1999/xlink" width="80" height="40" viewbox="0 0 80 40">
    <defs>
        <clipPath id="clip-path">
            <rect id="Rectangle_5274" data-name="Rectangle 5274" width="80" height="40" fill="#0077b6"/>
        </clipPath>
    </defs>
    <g id="Banana_boat_icon" data-name="Banana boat icon">
        <g id="Group_30198" data-name="Group 30198" clip-path="url(#clip-path)">
            <path id="Path_34056" data-name="Path 34056" d="M39.964,18.832c-9.454,0-18.91.014-28.364-.012a11.652,11.652,0,0,1-5.39-1.4c-1.686-.88-3.368-1.78-4.984-2.78a2.791,2.791,0,0,1-1.2-1.5c-.186-.746.534-1.177,1.152-1.519C2.85,10.7,4.506,9.76,6.19,8.876a12.266,12.266,0,0,1,5.756-1.451q27.741-.018,55.482,0a13.709,13.709,0,0,1,6.908,1.758c1.546.882,3.132,1.69,4.668,2.584,1.232.714,1.352,1.918.188,2.59-2.238,1.293-4.508,2.55-6.848,3.644-2.206,1.03-4.634.838-7.008.836q-12.687-.015-25.372,0" transform="translate(-1.094 7.383)" fill="#0077b6"/>
            <path id="Path_34057" data-name="Path 34057" d="M4.267,15.4C1.991,11.74-.171,8.131.015,3.679.069,2.418.255,1.095,1.573.5S4,.65,4.985,1.446a9.4,9.4,0,0,1,1.852,1.84c1.98,2.834,4.816,3.832,8.1,3.883,2.59.042,5.18.008,7.82.008.434,1.591,1.286,2.708,3.042,2.646,1.622-.058,2.4-1.13,2.78-2.578H41.153c.664,1.858,1.5,2.59,2.916,2.592s2.246-.732,2.926-2.594H59.553c.108.307.2.6.316.88a2.841,2.841,0,0,0,2.95,1.7,2.753,2.753,0,0,0,2.412-2.275.982.982,0,0,1,.858-.982A7.227,7.227,0,0,0,69.567,4.3c.984-1.08,2.006-2.127,3.078-3.117A4.094,4.094,0,0,1,74.127.424,1.66,1.66,0,0,1,76.489,1.46a11.529,11.529,0,0,1,.544,4.007,17.631,17.631,0,0,1-3.578,8.809c-4.212-1.728-8.626-1.094-12.968-1.11-15.9-.058-31.8-.01-47.7-.034A15.288,15.288,0,0,0,4.817,15.14c-.132.078-.274.132-.55.263" transform="translate(-1.09 0.278)" fill="#0077b6"/>
            <path id="Path_34058" data-name="Path 34058" d="M61.764,24.188a4.978,4.978,0,0,1-3.826-1.676c-.616-.657-1.156-1.387-1.712-2.1-1.76-2.263-3.464-2.285-5.244-.06-.544.682-1.05,1.4-1.648,2.032a5.212,5.212,0,0,1-7.992-.032c-.72-.772-1.324-1.652-2.016-2.455-1.362-1.581-2.992-1.587-4.386-.018-.474.535-.9,1.12-1.34,1.682-2.824,3.58-6.552,3.582-9.412,0-.524-.657-1.012-1.353-1.594-1.954a2.5,2.5,0,0,0-3.868.022c-.62.655-1.136,1.4-1.706,2.105-2.74,3.361-6.456,3.337-9.178-.058-.468-.583-.918-1.181-1.39-1.762a3.005,3.005,0,0,0-2.228-1.2,1.4,1.4,0,0,1-1.38-1.555A1.417,1.417,0,0,1,4.392,15.87,5.207,5.207,0,0,1,8.438,17.9c.63.732,1.18,1.533,1.816,2.259,1.408,1.606,3.072,1.579,4.458-.064.622-.738,1.17-1.543,1.814-2.261a5.267,5.267,0,0,1,8.258-.036c.546.6,1.014,1.263,1.518,1.9,1.752,2.205,3.448,2.207,5.18.016a26.78,26.78,0,0,1,1.712-2.1,5.212,5.212,0,0,1,7.87.014c.688.716,1.262,1.541,1.888,2.317,1.49,1.842,3.174,1.884,4.7.1.606-.712,1.138-1.487,1.762-2.183a5.282,5.282,0,0,1,8.324-.008c.644.718,1.19,1.523,1.814,2.261,1.378,1.634,3.048,1.658,4.462.05.718-.82,1.35-1.714,2.078-2.526a4.98,4.98,0,0,1,3.786-1.764,1.419,1.419,0,0,1,1.55,1.289,1.392,1.392,0,0,1-1.376,1.559,2.993,2.993,0,0,0-2.23,1.2c-.67.82-1.3,1.676-2.006,2.463a5.093,5.093,0,0,1-4.05,1.81" transform="translate(1.743 15.753)" fill="#0077b6"/>
            <path id="Path_34059" data-name="Path 34059" d="M27.046,5.675c0,.561.042,1.126-.01,1.68a1.411,1.411,0,0,1-1.5,1.361,1.37,1.37,0,0,1-1.362-1.4c-.05-.962,0-1.932-.034-2.9a1.405,1.405,0,0,0-1.388-1.553c-.77-.018-1.3.513-1.428,1.427-.154,1.11-.676,1.61-1.592,1.529-.876-.08-1.322-.732-1.258-1.842A4.176,4.176,0,0,1,22.458.009a4.225,4.225,0,0,1,4.494,3.524c.108.7.1,1.425.148,2.139l-.054,0" transform="translate(17.378 0.003)" fill="#0077b6"/>
            <path id="Path_34060" data-name="Path 34060" d="M36.258,5.674c0,.529.028,1.06-.006,1.585a1.486,1.486,0,0,1-1.5,1.473A1.44,1.44,0,0,1,33.372,7.25c-.04-.962.008-1.928-.032-2.89a1.375,1.375,0,0,0-1.348-1.485c-.782-.048-1.316.455-1.464,1.377-.192,1.2-.7,1.678-1.638,1.559-.9-.114-1.32-.79-1.212-1.96a4.279,4.279,0,0,1,8.454-.405,22.152,22.152,0,0,1,.174,2.223l-.048,0" transform="translate(26.568 0.004)" fill="#0077b6"/>
            <path id="Path_34061" data-name="Path 34061" d="M17.827,5.732c0,.561.038,1.124-.01,1.68a1.379,1.379,0,0,1-1.434,1.309,1.428,1.428,0,0,1-1.4-1.363c-.044-.964,0-1.93-.02-2.9A1.445,1.445,0,0,0,13.6,2.872c-.82-.032-1.33.485-1.462,1.489s-.688,1.537-1.56,1.469-1.33-.684-1.3-1.714A4.168,4.168,0,0,1,13.227.01a4.247,4.247,0,0,1,4.538,3.578c.1.7.084,1.427.122,2.141l-.06,0" transform="translate(8.183 0)" fill="#0077b6"/>
        </g>
    </g>
</svg>

