<svg xmlns="http://www.w3.org/2000/svg" xmlns:xlink="http://www.w3.org/1999/xlink" width="18" height="18.001" viewBox="0 0 18 18.001">
  <defs>
    <clipPath id="clip-path">
      <rect id="Rectangle_5378" data-name="Rectangle 5378" width="18" height="18.001" fill="#585858"/>
    </clipPath>
  </defs>
  <g id="Group_30456" data-name="Group 30456" clip-path="url(#clip-path)">
    <path id="Path_36091" data-name="Path 36091" d="M14.775,10.2a.923.923,0,0,0-.923.923v5.541a.925.925,0,0,1-.923.923H2.77a.925.925,0,0,1-.923-.923V6.51a.925.925,0,0,1,.923-.923H8.311a.923.923,0,1,0,0-1.847H2.77A2.774,2.774,0,0,0,0,6.51V16.668a2.774,2.774,0,0,0,2.77,2.77H12.928a2.774,2.774,0,0,0,2.77-2.77V11.127a.923.923,0,0,0-.923-.923" transform="translate(0 -1.438)" fill="#585858"/>
    <path id="Path_36092" data-name="Path 36092" d="M22.036.923a.929.929,0,0,0-.065-.337s0-.009,0-.014a.926.926,0,0,0-.5-.5l-.014,0A.914.914,0,0,0,21.112,0H15.572a.923.923,0,0,0,0,1.847h3.311L10.77,9.961a.923.923,0,1,0,1.306,1.306l8.113-8.113V6.464c0,.51.923.923.923.923s.923-.413.923-.923V.923" transform="translate(-4.036 0)" fill="#585858"/>
  </g>
</svg>
