<svg xmlns="http://www.w3.org/2000/svg" width="80" height="80" viewBox="0 0 80 80">
  <g id="Group_28719" data-name="Group 28719" transform="translate(-6971 -15535.74)">
    <path id="Path_33966" data-name="Path 33966" d="M1529.735,20a20.036,20.036,0,0,1-17.5,19.85,20.887,20.887,0,0,1-5,0,20,20,0,1,1,22.5-19.85" transform="translate(5501.265 15535.74)" fill="#ecb365"/>
    <rect id="Rectangle_5108" data-name="Rectangle 5108" width="30" height="25" transform="translate(6971 15580.74)" fill="#fff"/>
    <rect id="Rectangle_5109" data-name="Rectangle 5109" width="30" height="25" transform="translate(7021 15580.74)" fill="#fff"/>
    <path id="Path_33967" data-name="Path 33967" d="M1573.735,270.189v5h-20v-5h7.5v-15.15a20.886,20.886,0,0,0,5,0v15.15Z" transform="translate(5447.265 15320.551)" fill="#ecb365"/>
    <rect id="Rectangle_5110" data-name="Rectangle 5110" width="5" height="17.5" transform="translate(7008.5 15540.74)" fill="#fff"/>
    <rect id="Rectangle_5111" data-name="Rectangle 5111" width="7.5" height="5" transform="translate(7013.5 15553.24)" fill="#fff"/>
    <rect id="Rectangle_5112" data-name="Rectangle 5112" width="5" height="5" transform="translate(7008.5 15553.24)" fill="#b77d37"/>
    <path id="Path_33968" data-name="Path 33968" d="M1606.735,224v4.85a20.888,20.888,0,0,1-5,0V224Z" transform="translate(5406.765 15346.74)" fill="#b77d37"/>
    <rect id="Rectangle_5113" data-name="Rectangle 5113" width="5" height="5" transform="translate(6996 15590.74)" fill="#b77d37"/>
    <rect id="Rectangle_5114" data-name="Rectangle 5114" width="5" height="5" transform="translate(7021 15590.74)" fill="#b77d37"/>
    <path id="Path_33969" data-name="Path 33969" d="M1413.735,453v5h-20v-5h7.5v-5h5v5Z" transform="translate(5582.265 15157.74)" fill="#ecb365"/>
    <path id="Path_33970" data-name="Path 33970" d="M1733.735,453v5h-20v-5h7.5v-5h5v5Z" transform="translate(5312.265 15157.74)" fill="#ecb365"/>
  </g>
</svg>
