<svg xmlns="http://www.w3.org/2000/svg" width="33" height="33" viewBox="0 0 33 33">
  <g id="Icon" transform="translate(-18.2 -18.2)">
    <path id="Icon-2" data-name="Icon" d="M16.944,52.974a1.288,1.288,0,0,1-1.29,1.287H6.509a1.287,1.287,0,1,1,0-2.574h9.145a1.288,1.288,0,0,1,1.29,1.287m-1.29,3.86H6.509a1.287,1.287,0,1,0,0,2.574h9.145a1.287,1.287,0,1,0,0-2.574m-5.213,5.148H6.509a1.286,1.286,0,1,0,0,2.573h3.932a1.286,1.286,0,1,0,0-2.573m19.98,4.181V55.093a2.579,2.579,0,0,0-2.578-2.574H22.172V56.9h3.86a1.287,1.287,0,1,1,0,2.574h-3.86v2.573h3.86a1.287,1.287,0,1,1,0,2.574h-3.86v2.574h3.86a1.286,1.286,0,1,1,0,2.573H21.583a5.161,5.161,0,0,1-4.566,2.762H12.761v.063a2.578,2.578,0,0,0,2.578,2.573h12.5a2.578,2.578,0,0,0,2.578-2.573,1.289,1.289,0,0,1,2.578,0,5.157,5.157,0,0,1-5.156,5.147H15.34a5.158,5.158,0,0,1-5.156-5.147v-.062H5.156A5.155,5.155,0,0,1,0,67.384v-17.5a5.157,5.157,0,0,1,5.156-5.147H17.016a5.157,5.157,0,0,1,5.156,5.147v.059h5.672A5.158,5.158,0,0,1,33,55.093v11.07a1.289,1.289,0,0,1-2.578,0ZM19.594,49.886a2.579,2.579,0,0,0-2.578-2.574H5.156a2.579,2.579,0,0,0-2.578,2.574v17.5a2.575,2.575,0,0,0,2.578,2.574l11.859,0a2.579,2.579,0,0,0,2.578-2.574Z" transform="translate(18.2 -26.539)" fill="#0092e0"/>
  </g>
</svg>
