<svg xmlns="http://www.w3.org/2000/svg" width="80" height="80" viewBox="0 0 80 80">
  <g id="Group_28718" data-name="Group 28718" transform="translate(-6213.731 -15621.5)">
    <path id="Path_33962" data-name="Path 33962" d="M886.966,128.26h-25a17.519,17.519,0,0,0-17.5-17.5v-5l5-6.9-5-8.1v-5a42.528,42.528,0,0,1,42.5,42.5" transform="translate(5406.765 15535.74)" fill="#ecb365"/>
    <path id="Path_33963" data-name="Path 33963" d="M619.466,155.26a22.534,22.534,0,0,0,22.5,22.5v15a37.5,37.5,0,0,1,0-75l5,8.1-5,6.9a22.534,22.534,0,0,0-22.5,22.5" transform="translate(5609.265 15508.74)" fill="#fff"/>
    <path id="Path_33964" data-name="Path 33964" d="M925.714,398.6l-14.545-3.879A22.506,22.506,0,0,1,897.857,409.8l5.578,13.945A37.532,37.532,0,0,0,925.714,398.6" transform="translate(5361.716 15275.058)" fill="#ecb365"/>
    <path id="Path_33965" data-name="Path 33965" d="M870.966,128.76l-10.6,10.6a22.283,22.283,0,0,0-15.9-6.6v-15a37.247,37.247,0,0,1,26.5,11" transform="translate(5406.765 15508.74)" fill="#b77d37"/>
  </g>
</svg>
