<svg
  xmlns="http://www.w3.org/2000/svg"
  xmlns:xlink="http://www.w3.org/1999/xlink"
  width="204.869"
  height="64.696"
  viewBox="0 0 204.869 64.696"
>
  <defs>
    <linearGradient
      id="linear-gradient"
      x1="0.5"
      x2="0.5"
      y2="1"
      gradientUnits="objectBoundingBox"
    >
      <stop offset="0" stop-color="#0092e0" />
      <stop offset="1" stop-color="#61e786" />
    </linearGradient>
  </defs>
  <path
    id="Union_6"
    data-name="Union 6"
    d="M12.939,59C9.411,55.534,5.923,52.024,2.427,48.52A7.576,7.576,0,0,1,.37,40.593a7.471,7.471,0,0,1,5.972-5.384,7.757,7.757,0,0,1,8.564,4.27,7.854,7.854,0,0,1-2.053,9.416c-.191.161-.391.314-.457.365a76.046,76.046,0,0,0,6.041,6.228,12.293,12.293,0,0,0,13.227,1.963,12.2,12.2,0,0,0,7.769-10.587,12.557,12.557,0,0,0-3.911-10.694Q28.663,29.325,21.81,22.479a3.1,3.1,0,0,1,.488-4.957,3.152,3.152,0,0,1,3.918.535c1.4,1.367,2.777,2.76,4.159,4.145,3.438,3.443,7.017,6.758,10.278,10.359,5.168,5.709,6.522,12.416,3.861,19.622C41.9,59.265,36.579,63.427,29.087,64.487A20.516,20.516,0,0,1,26.2,64.7,18.477,18.477,0,0,1,12.939,59ZM7.832,40.451a2.415,2.415,0,1,0,.132,4.828,2.384,2.384,0,0,0,2.259-2.423,2.453,2.453,0,0,0-2.362-2.4Zm19.293,6.386c-1.038-.934-2.008-1.943-3-2.931-3.735-3.736-7.524-7.42-11.184-11.228C7.474,26.984,5.877,20.234,8.464,12.823,11.018,5.5,16.424,1.228,24.151.188A18.336,18.336,0,0,1,40.067,5.61c3.615,3.541,7.177,7.134,10.748,10.72a7.818,7.818,0,0,1,1.608,8.606A7.84,7.84,0,1,1,40.2,15.8c.191-.16.385-.316.423-.348A77.459,77.459,0,0,0,34.5,9.072a12.869,12.869,0,0,0-17.593,18.69c4.654,4.905,9.526,9.607,14.317,14.383a3.2,3.2,0,0,1,1.044,2.541A2.938,2.938,0,0,1,30.4,47.351a3.193,3.193,0,0,1-1.306.3A2.91,2.91,0,0,1,27.125,46.836Zm18-27.4a2.407,2.407,0,0,0-2.309,2.3,2.415,2.415,0,1,0,2.334-2.3Zm85.349,20.777a5.522,5.522,0,0,1-2.227-4.8h2.209c.042.211.1.4.117.587a3.7,3.7,0,0,0,2.29,3.074,7.03,7.03,0,0,0,5.472.134,2.714,2.714,0,0,0,1.883-2.7,2.408,2.408,0,0,0-1.793-2.454c-1.422-.482-2.906-.781-4.356-1.187a25.4,25.4,0,0,1-2.71-.856c-3.61-1.457-2.979-5.744-1.04-7.4,2.322-1.988,7-2.222,9.442-.408a5.279,5.279,0,0,1,2.115,4.414h-2.191a.513.513,0,0,1-.112-.172,4.7,4.7,0,0,0-7.282-2.674,2.4,2.4,0,0,0,.4,4.257,42.491,42.491,0,0,0,4.183,1.168,26.123,26.123,0,0,1,3.1,1c3.554,1.524,3.376,6.236.658,8.108a9.08,9.08,0,0,1-5.037,1.378A8.717,8.717,0,0,1,130.471,40.216ZM115.409,41.4c-2.749-.5-4.541-2.2-4.681-4.949-.216-4.308-.057-8.635-.057-13h2.307v.95c0,3.406-.009,6.811,0,10.216.015,4.042,3.306,6.226,7.089,4.684,1.861-.758,2.459-2.338,2.473-4.186.029-3.574.009-7.146.009-10.719v-.947h2.312c.042.093.106.166.106.239-.01,4.074.069,8.151-.072,12.22a5.583,5.583,0,0,1-5.5,5.663c-.452.038-.911.058-1.371.058A14.788,14.788,0,0,1,115.409,41.4Zm42.81-.11c-.552-.046-1.11-.01-1.777-.01.753-1.93,1.471-3.768,2.188-5.6,1.51-3.87,3.031-7.734,4.516-11.613a.873.873,0,0,1,.965-.674c1.949,0,1.955-.021,2.68,1.83q3,7.671,6,15.343c.079.2.137.413.235.717-.8,0-1.523.042-2.237-.025a.933.933,0,0,1-.58-.545q-.8-2.065-1.521-4.164a.8.8,0,0,0-.9-.64q-3.1.046-6.209,0a.808.808,0,0,0-.9.642c-.48,1.368-1.028,2.713-1.5,4.083-.158.463-.38.667-.819.667C158.316,41.3,158.269,41.3,158.219,41.294Zm6.387-15.414c-.958,2.633-1.917,5.265-2.9,7.974h5.961c-.969-2.707-1.918-5.352-2.865-8ZM187.4,41.273c-.674-.034-.63-.626-.679-1.066-.138-1.218-.163-2.451-.349-3.66-.35-2.275-1.094-2.864-3.422-2.861q-2.476,0-4.952.019a1.17,1.17,0,0,0-.25.09v7.43h-2.422V23.4c.974,0,1.892-.007,2.811,0,.636,0,1.275,0,1.912,0,1.6,0,3.2,0,4.8.1a4.235,4.235,0,0,1,3.918,2.582,5.061,5.061,0,0,1-.511,5.1,9.047,9.047,0,0,1-1.814,1.523c1.826.539,2.178,2.132,2.312,3.868.122,1.573.072,3.183.994,4.708-.519,0-1,.011-1.459.011C187.986,41.293,187.693,41.288,187.4,41.273Zm-9.651-9.786c2.254,0,4.436.141,6.587-.044,1.738-.15,2.551-1.533,2.382-3.423a2.649,2.649,0,0,0-2.952-2.544c-1.48-.018-2.961,0-4.443,0h-1.574Zm18.808,9.755V25.51H190.64V23.446h14.229v1.989H198.96V41.242ZM76.775,41.233V23.471H89.083v2H79.2v5.556h9.19v2.106H79.2v6.094h9.965v2.009Zm73.319-.007V25.473h-5.956V23.464h14.2v1.984h-5.881V41.226Zm-57.535-.111V23.551c.05-.037.094-.1.137-.1.8.006,1.61,0,2.416-.015a48.612,48.612,0,0,1,5.535.137c3.933.4,6.245,2.858,6.553,6.817a18.942,18.942,0,0,1-.308,5.063,6.472,6.472,0,0,1-6.036,5.607c-1.052.1-2.112.134-3.177.134C95.985,41.194,94.277,41.115,92.559,41.115ZM95.017,39.2c1.676,0,3.3.131,4.9-.031a4.992,4.992,0,0,0,4.493-3.706,10.777,10.777,0,0,0-.007-6.584,4.151,4.151,0,0,0-3.372-3.146c-1.965-.286-3.977-.248-6.011-.353Z"
    transform="translate(0 0)"
    fill="url(#linear-gradient)"
  />
</svg>
