<svg
  xmlns="http://www.w3.org/2000/svg"
  xmlns:xlink="http://www.w3.org/1999/xlink"
  width="40"
  height="30"
  viewBox="0 0 40 30"
>
  <defs>
    <clipPath id="clip-path">
      <rect
        id="Rectangle_5268"
        data-name="Rectangle 5268"
        width="40"
        height="30"
        fill="none"
      />
    </clipPath>
  </defs>
  <g id="Group_29939" data-name="Group 29939" clip-path="url(#clip-path)">
    <path
      id="Path_33798"
      data-name="Path 33798"
      d="M13.889,3.107a22.218,22.218,0,0,0-5.827,5.12,15.287,15.287,0,0,0-2.507,6.437,15.378,15.378,0,0,1,3.472-.588,6.682,6.682,0,0,1,5.259,2.237,8.438,8.438,0,0,1,1.982,5.824,8.02,8.02,0,0,1-2.007,5.725A6.974,6.974,0,0,1,8.927,30a7.7,7.7,0,0,1-6.843-3.6A13.971,13.971,0,0,1,0,18.625Q0,7.974,11.51,0Zm23.722,0a22.218,22.218,0,0,0-5.827,5.12,15.648,15.648,0,0,0-2.558,6.437,15.942,15.942,0,0,1,3.523-.588,6.717,6.717,0,0,1,5.259,2.212,8.431,8.431,0,0,1,1.982,5.849,8.02,8.02,0,0,1-2.007,5.725A6.974,6.974,0,0,1,32.649,30,7.726,7.726,0,0,1,25.8,26.4a13.971,13.971,0,0,1-2.083-7.78Q23.714,7.974,35.232,0Z"
      transform="translate(0 -0.001)"
    />
  </g>
</svg>
