<svg id="Group_110" data-name="Group 110" xmlns="http://www.w3.org/2000/svg" xmlns:xlink="http://www.w3.org/1999/xlink" width="138" height="42" viewBox="0 0 138 42">
  <defs>
    <clipPath id="clip-path">
      <rect id="Rectangle_50" data-name="Rectangle 50" width="138" height="42" fill="none"/>
    </clipPath>
  </defs>
  <g id="Group_109" data-name="Group 109" transform="translate(0 0)" clip-path="url(#clip-path)">
    <path id="Path_705" data-name="Path 705" d="M20.747,33.674c0,1.943.3,2.579.936,2.766.374.075.786.112,1.161.149.112,0,.187,0,.187.149s-.15.187-.449.187c-1.348,0-2.284-.075-2.472-.075s-1.236.075-2.284.075c-.225,0-.374,0-.374-.187s.075-.149.187-.149a2.8,2.8,0,0,0,.974-.149c.6-.187.712-.86.712-3.027V19.733c0-.934.075-1.233.262-1.233s.6.523.824.785c.225.224,3.895,4.223,7.527,8.148,2.359,2.467,4.906,5.419,5.692,6.2l-.262-12c0-1.532-.187-2.056-.936-2.242a6.108,6.108,0,0,0-1.161-.112c-.15,0-.187-.075-.187-.149s.187-.187.487-.187c1.086,0,2.209.075,2.472.075s1.049-.075,2.022-.075c.262,0,.412,0,.412.187s-.075.149-.262.149a2.9,2.9,0,0,0-.562.075c-.786.149-.861.71-.861,2.13V35.43c0,1.57,0,1.682-.225,1.682s-.487-.262-1.723-1.532c-.262-.224-3.67-3.737-6.217-6.466-2.734-2.953-5.43-5.98-6.217-6.839ZM128,30.8a4.964,4.964,0,0,0-.562-2.541c-.15-.374-3.37-5.681-4.232-6.952a7.192,7.192,0,0,0-1.685-1.682,1.962,1.962,0,0,0-1.011-.374c-.112,0-.225,0-.225-.187s.075-.149.3-.149l2.4.075c.15,0,1.086-.075,2.022-.075.262,0,.3.075.3.149,0,.112-.15.112-.374.224a.451.451,0,0,0-.3.448,2.733,2.733,0,0,0,.3.934c.374.71,4.007,6.952,4.419,7.624.449-1.009,3.483-6.279,3.97-7.1a2.121,2.121,0,0,0,.412-1.233c0-.336-.075-.635-.374-.673-.3-.075-.374-.112-.374-.224s.15-.149.374-.149c.637,0,1.386.075,1.61.075l2.322-.075c.187,0,.3,0,.3.149s-.112.187-.3.187a2.308,2.308,0,0,0-1.086.336,4.841,4.841,0,0,0-1.236,1.233,79.872,79.872,0,0,0-4.606,7.662,6.008,6.008,0,0,0-.374,2.429v2.018c0,.374,0,1.42.075,2.429a1.185,1.185,0,0,0,1.011,1.345c.374.037.712.075,1.086.112.15,0,.187,0,.187.149s-.15.187-.412.187c-1.236,0-2.809-.075-2.958-.075s-1.648.075-2.359.075c-.262,0-.374,0-.374-.187s0-.149.187-.149a2.6,2.6,0,0,0,.749-.112c.487-.112.712-.635.749-1.345C128,34.347,128,33.3,128,32.926ZM2.022,25.825V20.668c0-.747-.225-1.233-1.011-1.383a5.62,5.62,0,0,0-.824-.075c-.112,0-.187,0-.187-.112s.112-.224.374-.224c1.086,0,2.472.075,2.734.075s1.648-.075,2.4-.075c.262,0,.374,0,.374.224s-.112.112-.187.112a3.284,3.284,0,0,0-.6.075c-.637.112-.824.523-.861,1.383s0,1.42,0,5.158v3.364c0,3.438.786,4.971,1.8,5.942a4.712,4.712,0,0,0,3.6,1.345,4.9,4.9,0,0,0,3.745-1.757c1.011-1.42,1.348-3.4,1.348-5.905V20.668c0-.747-.225-1.233-1.011-1.383a6.136,6.136,0,0,0-.824-.075c-.112,0-.187,0-.187-.112s.112-.224.374-.224c1.086,0,2.4.075,2.472.075s1.236-.075,2.022-.075c.262,0,.374,0,.374.224s-.112.112-.187.112a3.284,3.284,0,0,0-.6.075c-.637.112-.824.523-.9,1.383-.037.86,0,1.42,0,5.158v2.541c0,2.579-.3,5.494-2.209,7.176a7.175,7.175,0,0,1-4.906,1.794,7.292,7.292,0,0,1-4.906-1.719c-1.161-1.121-2.1-2.8-2.1-6.316Zm39.134,4.223c0,2.317,0,4.223.112,5.232.075.71.225,1.233.936,1.345.337,0,.861.075,1.086.075s.187.075.187.149-.112.187-.374.187c-1.311,0-2.809-.075-2.921-.075s-1.648.075-2.359.075c-.262,0-.374,0-.374-.187s0-.149.187-.149a5.127,5.127,0,0,0,.712-.075c.487-.112.6-.635.712-1.345.112-1.009.112-2.878.112-5.232V20.705c0-.747-.3-1.233-.824-1.345a2.6,2.6,0,0,0-.749-.112c-.075,0-.187,0-.187-.112s.112-.224.374-.224c.786,0,2.284.075,2.4.075s1.61-.075,2.359-.075c.262,0,.374,0,.374.224s-.112.112-.187.112a3.284,3.284,0,0,0-.6.075c-.637.112-.824.523-.9,1.383-.037.86,0,1.42,0,5.158Zm12.021,4.036C54.526,30.8,57.747,22.5,58.271,20.78a2.565,2.565,0,0,0,.187-.9.659.659,0,0,0-.3-.561,3.7,3.7,0,0,0-.9-.112c-.15,0-.262,0-.262-.112s.15-.224.524-.224c.936,0,2.06.075,2.359.075s1.161-.075,1.872-.075c.262,0,.412,0,.412.149s-.112.187-.3.187a2.157,2.157,0,0,0-1.161.3c-.3.224-.674.635-1.311,2.28-.262.673-1.461,3.551-2.659,6.5-1.461,3.513-2.472,6.092-3.071,7.288-.674,1.42-.786,1.831-1.011,1.831s-.412-.336-.861-1.495L45.95,21.228c-.524-1.345-.9-1.607-1.723-1.869a3.7,3.7,0,0,0-.9-.112c-.15,0-.187-.075-.187-.187s.262-.149.637-.149c1.161,0,2.472.075,2.809.075s1.311-.075,2.209-.075c.449,0,.637,0,.637.149s-.075.187-.225.187a3.7,3.7,0,0,0-.9.112.5.5,0,0,0-.3.486,9.4,9.4,0,0,0,.637,1.981Zm11.31-8.26c0-3.737,0-4.41-.075-5.158s-.225-1.233-1.011-1.383a5.62,5.62,0,0,0-.824-.075c-.112,0-.187,0-.187-.112s.112-.224.374-.224c1.086,0,2.584.075,2.7.075h5.468c.337-.037.674-.075,1.049-.112.112,0,.225-.112.337-.112s.112.075.112.224c0,.112-.112.448-.187,1.121,0,.224-.075,1.233-.112,1.57s-.075.262-.187.262-.187-.112-.187-.3a2.189,2.189,0,0,0-.15-.86c-.15-.374-.412-.673-1.685-.822-.412,0-3-.075-3.258-.075s-.15.075-.15.262v6.615c0,.149,0,.224.15.224H70.4a1.721,1.721,0,0,0,1.161-.336c.225-.224.262-.3.337-.3.112,0,.112,0,.112.187s-.112.561-.187,1.345c0,.486-.075,1.383-.075,1.57s0,.448-.187.448-.15-.112-.15-.224a2.84,2.84,0,0,0-.112-.785c-.075-.336-.3-.747-1.236-.822-.637-.075-3-.112-3.408-.112a.171.171,0,0,0-.187.149v6.2c.075,1.682.449,1.981,2.771,1.981a6.938,6.938,0,0,0,2.322-.262c.6-.262.9-.747,1.086-1.719,0-.262.075-.336.187-.336s.15.187.15.336c-.075.785-.15,1.57-.3,2.355-.187.635-.374.635-1.236.635-3.6,0-5.205-.149-5.88-.149-.112,0-1.61.075-2.359.075-.262,0-.374,0-.374-.187s0-.149.187-.149a4.6,4.6,0,0,0,.712-.075c.487-.112.6-.635.712-1.345.112-1.009.112-2.878.112-5.232ZM89.391,36.7c-.337-.187-.374-.262-.374-.9,0-1.233.112-2.168.112-2.467,0-.336.075-.374.187-.374s.187.075.187.262a3.632,3.632,0,0,0,.075.9,3.575,3.575,0,0,0,6.928-.785c0-1.682-.712-2.616-2.734-4.335l-1.086-.9c-2.472-2.093-3.108-3.588-3.108-5.232,0-2.541,1.91-4.3,4.981-4.3a11.454,11.454,0,0,1,2.247.224,3.125,3.125,0,0,0,.824.112c.187,0,.262,0,.262.187s-.112.9-.112,2.467c0,.374,0,.561-.187.561s-.187-.112-.187-.336a4.573,4.573,0,0,0-.3-1.233c-.15-.3-.786-1.233-2.958-1.233a2.731,2.731,0,0,0-3,2.429v.336c0,1.383.674,2.168,2.921,4.036l.674.523c2.809,2.242,3.483,3.737,3.483,5.643a4.9,4.9,0,0,1-2.022,3.962,6.178,6.178,0,0,1-3.6,1.009,6.762,6.762,0,0,1-3.221-.561m13.781-6.653c0,2.317,0,4.223.112,5.232.075.71.225,1.233.936,1.345.337,0,.861.075,1.086.075s.187.075.187.149-.112.187-.374.187c-1.311,0-2.809-.075-2.921-.075s-1.573.075-2.359.075c-.262,0-.374,0-.374-.187s0-.149.187-.149a5.085,5.085,0,0,0,.749-.075c.487-.112.6-.635.712-1.345.112-1.009.112-2.878.112-5.232V20.668c0-.747-.3-1.233-.824-1.345a2.6,2.6,0,0,0-.749-.112c-.075,0-.187,0-.187-.112s.112-.224.374-.224c.786,0,2.284.075,2.4.075s1.61-.075,2.359-.075c.262,0,.374,0,.374.224s-.075.112-.187.112a3.284,3.284,0,0,0-.6.075c-.674.112-.861.523-.9,1.383s0,1.42,0,5.158Zm10.486,0c0,2.317,0,4.223.112,5.232.075.71.225,1.233.936,1.345.337,0,.861.075,1.086.075s.187.075.187.149-.112.187-.374.187c-1.311,0-2.809-.075-2.921-.075s-1.648.075-2.359.075c-.262,0-.374,0-.374-.187s0-.149.187-.149a2.431,2.431,0,0,0,.712-.075c.487-.112.6-.635.712-1.345.112-1.009.112-2.878.112-5.232V19.92h-3.52c-1.461,0-2.06.187-2.4.785a4.785,4.785,0,0,0-.412.747.212.212,0,0,1-.225.224c-.112,0-.112-.075-.112-.224s.487-2.317.524-2.467c.037-.187.15-.448.262-.448a4.839,4.839,0,0,0,1.049.3c.674.075,1.61.112,1.872.112h8.95a13,13,0,0,0,2.4-.224c.112,0,.112.112.112.3,0,.71-.075,2.355-.075,2.616s-.075.336-.187.336-.187-.075-.187-.411V21.3c-.112-.71-.637-1.233-2.921-1.308h-3ZM75.722,25.825V20.668c0-.785-.225-1.233-1.049-1.383a5.62,5.62,0,0,0-.824-.075c-.075,0-.187,0-.187-.149s.112-.187.374-.187c1.086,0,2.584.075,2.659.075.112,0,2.1-.075,2.809-.075a7.371,7.371,0,0,1,4.344,1.046A4.274,4.274,0,0,1,85.5,23.172c0,1.794-.712,3.551-2.884,5.531.861,1.084,3.82,5.232,3.82,5.232,3.033,3.924,6.366,7.138,11.2,7.251,2.022.075,2.209-.747,2.7-.561s-1.348,1.046-2.621,1.233c-.712.112-6.479,1.458-12.808-7.138,0,0-3.445-4.746-3.932-5.382a.341.341,0,0,0-.3-.149H77.782c-.112,0-.187,0-.187.187v.561c0,2.317,0,4.186.112,5.195,0,.71.225,1.233.936,1.308a9.914,9.914,0,0,0,1.086.075c.15,0,.187.075.187.149s-.112.187-.374.187c-1.311,0-2.809-.075-2.921-.075s-1.5.075-2.247.075c-.262,0-.374,0-.374-.187s0-.149.187-.149a4.6,4.6,0,0,0,.712-.075c.487-.112.6-.635.712-1.308.112-1.009.112-2.878.112-5.195Zm1.872,2.13a.381.381,0,0,0,.187.3,6.222,6.222,0,0,0,2.472.374,3.008,3.008,0,0,0,1.8-.448,4.5,4.5,0,0,0,1.461-3.737c0-2.953-1.573-4.784-4.119-4.784a7.83,7.83,0,0,0-1.61.149.333.333,0,0,0-.187.3Zm31.869-15.024c0,1.682.262,2.205.786,2.355a4.657,4.657,0,0,0,1.011.112c.112,0,.187,0,.187.112s-.112.187-.374.187c-1.123,0-1.947-.075-2.135-.075s-1.049.075-1.947.075c-.187,0-.337,0-.337-.187s.075-.112.15-.112a2.926,2.926,0,0,0,.824-.112c.524-.149.637-.747.637-2.579V1.009c0-.785,0-1.009.225-1.009s.487.448.712.635c.225.224,3.333,3.625,6.441,6.989,2.022,2.168,4.194,4.634,4.868,5.307l-.225-10.353c0-1.308-.187-1.794-.786-1.943a4.657,4.657,0,0,0-1.011-.112c-.15,0-.15-.075-.15-.149s.15-.149.412-.149h3.82c.225,0,.375,0,.375.149s-.075.149-.225.149a1.108,1.108,0,0,0-.487.075c-.674.149-.749.561-.749,1.794V14.314c0,1.345,0,1.458-.187,1.458s-.412-.224-1.5-1.308c-.225-.187-3.146-3.177-5.28-5.531-2.359-2.541-4.644-5.12-5.28-5.83ZM3.483,9.867c0,2.953.075,4.3.449,4.634.374.374.824.486,2.4.486,1.086,0,1.985,0,2.472-.6a3.008,3.008,0,0,0,.524-1.233c0-.149,0-.262.187-.262s.112.075.112.3a12.958,12.958,0,0,1-.3,2.056c-.15.486-.187.561-1.236.561-2.921,0-4.269-.112-5.43-.112-.187,0-1.386.075-1.985.075-.225,0-.337,0-.337-.149s0-.112.15-.112a3.284,3.284,0,0,0,.6-.075c.412-.075.524-.523.6-1.121.112-.86.112-2.467.112-4.41V1.943C1.8,1.271,1.61.934.936.785A4.156,4.156,0,0,0,.225.71C.15.71.075.71.075.6S.187.448.412.448H4.906c.225,0,.337,0,.337.149S5.168.71,5.093.71a3.3,3.3,0,0,0-.637.075c-.6.112-.749.448-.786,1.159s0,1.233,0,4.41Zm9.961-.075c0,1.981,0,3.551.112,4.41.075.6.187,1.046.786,1.121.262,0,.712.075.9.075s.15.075.15.112c0,.075-.112.149-.337.149-1.123,0-2.4-.075-2.472-.075-.112,0-1.386.075-1.985.075-.225,0-.3,0-.3-.149s0-.112.15-.112a3.284,3.284,0,0,0,.6-.075c.412-.075.524-.523.6-1.121.112-.86.112-2.467.112-4.41V1.831c0-.673-.225-1.046-.674-1.159A3.7,3.7,0,0,0,10.448.6c-.075,0-.15,0-.15-.112s.075-.149.3-.149h4.045c.225,0,.337,0,.337.149S14.9.6,14.83.6a2.2,2.2,0,0,0-.487.075c-.562.112-.712.448-.749,1.159s0,1.233,0,4.41Zm20.372,3.289c.075.747.225,1.869,1.086,2.168a4.717,4.717,0,0,0,1.236.187c.112,0,.187,0,.187.112s-.187.187-.449.187c-.449,0-2.621-.075-3.37-.112-.487,0-.562-.112-.562-.224s0-.112.15-.112.112-.374.075-.747L31.2,4H31.12L26.139,14.613c-.412.9-.487,1.084-.674,1.084s-.225-.187-.637-.934c-.524-1.009-2.284-4.522-2.359-4.709-.112-.187-2.472-5.27-2.7-5.83H19.7l-.749,9.418v1.046a.675.675,0,0,0,.524.635,2.856,2.856,0,0,0,.786.112c.075,0,.15,0,.15.112s-.112.187-.374.187c-.749,0-1.723-.075-1.872-.075-.187,0-1.161.075-1.723.075-.187,0-.337,0-.337-.187s.075-.112.187-.112a1.615,1.615,0,0,0,.6,0c.674-.112.749-.934.824-1.719L19.249.411c0-.224.112-.374.225-.374s.187.075.3.3L25.99,13.118,31.944.336c.075-.187.15-.336.3-.336s.225.149.262.561ZM56.286.037c4.569,0,7.977,2.878,7.977,7.624A8,8,0,0,1,56.586,16h-.449c-5.58,0-7.864-4.335-7.864-8A7.888,7.888,0,0,1,56.061.037h.225m.449,15.211c1.835,0,5.58-1.084,5.58-6.989,0-4.9-2.958-7.512-6.217-7.512S50.182,2.99,50.182,7.475c0,4.746,2.846,7.811,6.554,7.774M93.4,12.894h.075C94,11.025,95.87,5.12,96.581,2.5a5.115,5.115,0,0,0,.3-1.308c0-.374-.225-.6-1.161-.6-.112,0-.187,0-.187-.149S95.645.3,95.87.3h3.745c.187,0,.3,0,.3.112s0,.149-.187.149a2.356,2.356,0,0,0-.712.112c-.6.224-.936,1.084-1.311,2.205-.9,2.579-2.921,9.044-3.745,11.324-.524,1.532-.637,1.757-.824,1.757-.225,0-.337-.262-.637-1.084L88.53,3.551c-.749,1.981-3.52,9.418-4.232,11.324-.3.86-.449,1.084-.674,1.084s-.3-.224-.712-1.607L79.2,2.28C78.868,1.233,78.606.9,78.119.673a3.78,3.78,0,0,0-.936-.112c-.112,0-.187,0-.187-.149s.112-.149.337-.149h4.494c.3,0,.374,0,.374.149s-.112.149-.187.149a2.856,2.856,0,0,0-.786.112.639.639,0,0,0-.262.486,16.5,16.5,0,0,0,.374,1.869c.3,1.308,2.472,8.783,2.7,9.867L88.342,1.271c.3-.822.374-.934.487-.934s.3.262.524.934Zm10.186-3.1c0,1.981,0,3.551.075,4.41,0,.6.187,1.046.786,1.121.3,0,.749.075.9.075s.15.075.15.149-.112.149-.337.149c-1.123,0-2.4-.075-2.472-.075-.112,0-1.386.075-1.985.075-.225,0-.337,0-.337-.149s0-.149.187-.149a3.284,3.284,0,0,0,.6-.075c.374-.075.487-.523.6-1.121.075-.86.075-2.467.075-4.41v-8c0-.673-.262-1.046-.674-1.121A3.3,3.3,0,0,0,100.513.6c-.075,0-.187,0-.187-.112s.112-.149.337-.149h4.045c.225,0,.337,0,.337.149s-.075.112-.15.112a2.2,2.2,0,0,0-.487.075c-.562.112-.712.448-.749,1.159s0,1.233,0,4.41Zm31.233.747c0-1.682-.112-1.869-.936-2.13a4.134,4.134,0,0,0-.674-.075c-.075,0-.15,0-.15-.112s.112-.149.3-.149h4.307c.225,0,.337,0,.337.149s-.075.112-.187.112a2.2,2.2,0,0,0-.487.075c-.562.112-.712.448-.749,1.2-.037.71,0,1.233,0,2.13v2.28c0,.934,0,.972-.262,1.084a9.522,9.522,0,0,1-4.307.934,10.07,10.07,0,0,1-6.666-2.168,7.917,7.917,0,0,1-2.4-5.83,7.7,7.7,0,0,1,3.37-6.69A10.061,10.061,0,0,1,131.709.112a21.371,21.371,0,0,1,3.108.336,8.249,8.249,0,0,0,1.648.187c.187,0,.262.112.262.187a24.688,24.688,0,0,0-.15,2.878c0,.336,0,.448-.187.411-.187,0-.112-.112-.15-.3a2.877,2.877,0,0,0-.449-1.345c-.524-.747-2.135-1.644-4.756-1.644a6.477,6.477,0,0,0-4.344,1.345,6.567,6.567,0,0,0-2.022,5.158,8.085,8.085,0,0,0,2.172,5.643,7.392,7.392,0,0,0,5.318,2.205,5.053,5.053,0,0,0,2.322-.448.8.8,0,0,0,.412-.71ZM38.2,6.241V1.831c0-.673-.187-1.046-.861-1.159A4.134,4.134,0,0,0,36.663.6c-.075,0-.15,0-.15-.112s.075-.149.3-.149h4.232c.225,0,.3,0,.3.149S41.269.6,41.194.6a2.2,2.2,0,0,0-.487.075c-.562.112-.712.448-.749,1.159-.037.747,0,1.233,0,4.41V7.475h.075c.337-.411,4.007-4.148,4.756-4.971.562-.6,1.086-1.121,1.086-1.495,0-.336-.112-.374-.262-.411s-.187-.075-.187-.187c0-.075.112-.112.262-.112h3.483c.225,0,.3,0,.3.112s0,.149-.187.149a2.553,2.553,0,0,0-1.161.3,7.286,7.286,0,0,0-2.209,1.757c-.524.486-4.045,3.962-4.456,4.485.524.6,4.756,4.971,5.58,5.756a9.241,9.241,0,0,0,3.033,2.317,3.663,3.663,0,0,0,1.236.262c.15,0,.262,0,.262.112s-.112.149-.449.149H48.684a4.122,4.122,0,0,1-2.472-1.233c-.936-.747-5.205-5.457-6.217-6.615h-.112V9.867c0,1.943,0,3.551.112,4.41.075.6.187,1.046.786,1.121.3,0,.6.075.786.075s.15,0,.15.112-.112.149-.337.149H37.075c-.225,0-.337,0-.337-.149s0-.112.15-.112a3.284,3.284,0,0,0,.6-.075c.412-.075.487-.523.6-1.121.112-.86.112-2.467.112-4.41Zm27.488,0V1.831c0-.673-.225-1.046-.9-1.159A4.135,4.135,0,0,0,64.113.6c-.075,0-.15,0-.15-.112s.112-.149.337-.149h4.232c.225,0,.337,0,.337.149S68.794.6,68.719.6a2.533,2.533,0,0,0-.524.075c-.562.112-.712.448-.749,1.159-.037.747,0,1.233,0,4.41V7.475h.075c.337-.411,4.007-4.148,4.719-4.971.562-.6,1.086-1.121,1.086-1.495,0-.336-.112-.374-.262-.411s-.187-.075-.187-.187c0-.075.112-.112.262-.112h3.483c.225,0,.3,0,.3.112s0,.149-.225.149a2.553,2.553,0,0,0-1.161.3,7.482,7.482,0,0,0-2.322,1.757c-.524.486-4.044,3.962-4.456,4.485.524.6,4.756,4.971,5.58,5.756,1.723,1.607,2.06,1.943,3.033,2.317a3.663,3.663,0,0,0,1.236.262c.15,0,.262,0,.262.112s-.112.149-.449.149H75.984a4.122,4.122,0,0,1-2.472-1.233c-.936-.747-5.205-5.457-6.217-6.615h-.112V9.867c0,1.943,0,3.551.112,4.41,0,.6.15,1.046.786,1.121a5.6,5.6,0,0,0,.786.075c.112,0,.15,0,.15.112s-.112.149-.337.149H64.412c-.225,0-.3,0-.3-.149s0-.112.15-.112a3.284,3.284,0,0,0,.6-.075c.412-.075.524-.523.6-1.121.112-.86.112-2.467.112-4.41Z" transform="translate(0 0)" fill="#fff"/>
  </g>
</svg>
  