<svg id="Group_30368" data-name="Group 30368" xmlns="http://www.w3.org/2000/svg" xmlns:xlink="http://www.w3.org/1999/xlink" width="328" height="160" viewBox="0 0 328 160">
  <defs>
    <clipPath id="clip-path">
      <rect id="Rectangle_5350" data-name="Rectangle 5350" width="328" height="160" fill="none"/>
    </clipPath>
  </defs>
  <rect id="Rectangle_5347" data-name="Rectangle 5347" width="328" height="160"/>
  <g id="Group_30367" data-name="Group 30367">
    <g id="Group_30366" data-name="Group 30366" clip-path="url(#clip-path)">
      <path id="Path_36038" data-name="Path 36038" d="M82.24,154.678V149.9c0-.637-.16-1.115-.96-1.274h-.72a.156.156,0,0,1-.16-.159c0-.16,0-.16.4-.16h5.12a7.359,7.359,0,0,1,4.08.957,3.767,3.767,0,0,1,1.52,3.028,6.726,6.726,0,0,1-2.64,5.1c1.84,2.39,3.36,4.382,4.64,5.737a4.757,4.757,0,0,0,2.64,1.594h.88s.24,0,.24.16-.16.159-.56.159h-1.6a4.273,4.273,0,0,1-2.4-.4,10.513,10.513,0,0,1-2.96-3.267c-.96-1.275-2-2.63-2.48-3.267a.418.418,0,0,0-.32-.159H84.32c-.16,0-.16,0-.16.159v5.418c0,.957.24,1.116.88,1.2H86c.16,0,.16,0,.16.16s0,.159-.4.159H81.04c-.24,0-.4,0-.32-.159,0-.16,0-.16.16-.16h.64c.48,0,.56-.558.64-1.2s0-2.63,0-4.86ZM84,156.59a.6.6,0,0,0,.16.318,5.662,5.662,0,0,0,2.32.319,2.528,2.528,0,0,0,1.68-.4,4.277,4.277,0,0,0,1.36-3.426c0-2.63-1.52-4.462-3.84-4.462a4.394,4.394,0,0,0-1.44,0,.414.414,0,0,0-.16.319Z" transform="translate(-16.08 -29.658)" fill="#fff"/>
      <path id="Path_36039" data-name="Path 36039" d="M27.8,147.7a8.139,8.139,0,0,1,8.72,7.49v.876a8.727,8.727,0,0,1-8.32,9.084h-.56A8.359,8.359,0,0,1,19,157.186v-.8a8.537,8.537,0,0,1,8.56-8.686Zm.48,16.654c2,0,6.08-1.2,6.08-7.65,0-5.258-3.2-8.207-6.72-8.207s-6.48,2.55-6.48,7.331,3.12,8.526,7.12,8.526" transform="translate(-3.8 -29.537)" fill="#fff"/>
      <path id="Path_36040" data-name="Path 36040" d="M42.54,154.6V149.74a1.1,1.1,0,0,0-.96-1.274H40.7s0-.16.4-.16h7.84a1.95,1.95,0,0,0,.96,0h.32v.239c-.08.319-.16.718-.24,1.036v1.434c0,.239,0,.239-.16.318-.16,0-.16,0-.16-.318a1.814,1.814,0,0,0-.24-.877,1.76,1.76,0,0,0-1.52-.717H44.46c-.16,0-.24,0-.24.239V155.8c0,.159,0,.159.16.159h3.84c.56,0,.8,0,1.04-.4.16-.4.16-.239.24-.239s0,0,0,.16a5.489,5.489,0,0,1-.16,1.274,4.449,4.449,0,0,0,0,1.514c0,.159,0,.4-.16.4s-.16,0-.16-.159a2.826,2.826,0,0,0-.16-.8,1.289,1.289,0,0,0-1.12-.8H44.38c-.32,0-.16,0-.16.239v1.913a33.258,33.258,0,0,0,.16,4.86c0,.638.16,1.116.88,1.275h1.2s0,.159-.32.159h-4.8c-.24,0-.4,0-.4-.159s0,0,.16,0h.64c.48,0,.56-.558.64-1.275.08-.637,0-2.629,0-4.86Z" transform="translate(-8.14 -29.661)" fill="#fff"/>
      <path id="Path_36041" data-name="Path 36041" d="M207.431,158.446v4.861c0,.956.24,1.115.88,1.274h.96c.16,0,.16,0,.16.16s0,.159-.32.159h-4.88c-.24,0-.32,0-.32-.159s0-.16.16-.16h.72c.4,0,.56-.558.64-1.274.08-1.594.08-3.267,0-4.861v-9.482h-3.36c-1.36,0-1.92.16-2.24.718a3.225,3.225,0,0,0-.4.717.255.255,0,0,1-.24.239c-.08,0,0,0,0-.239s.48-2.151.48-2.31c.08-.159,0-.478.24-.478a3.99,3.99,0,0,0,1.04.319h10.08a10.715,10.715,0,0,0,2.24-.239V150.4c0,.239,0,.239-.16.239s-.16,0-.16-.4V150c0-.638-.56-1.2-2.64-1.274h-2.64Z" transform="translate(-39.831 -29.522)" fill="#fff"/>
      <path id="Path_36042" data-name="Path 36042" d="M219.54,154.581v-4.861a1.1,1.1,0,0,0-.96-1.274,2.215,2.215,0,0,0-.72-.08h-.16s0-.159.32-.159h8.88v.159a3.78,3.78,0,0,1-.16,1.036v1.434c0,.239,0,.239-.16.239s-.16,0-.16-.319a1.353,1.353,0,0,0,0-.8c-.16-.318-.4-.638-1.6-.8h-3.04c-.24,0,0,0-.16.239v6.135c0,.159,0,.159.16.239h3.6c.56,0,.88,0,1.04-.318s.24-.319.32-.319,0,0,0,.159v2.71c0,.159,0,.4-.16.4s-.16,0-.16-.159a1.346,1.346,0,0,0,0-.8c0-.319-.24-.718-1.12-.8s-2.8,0-3.2,0a.171.171,0,0,0-.16.159v5.737c0,1.594.4,1.833,2.64,1.833a5.1,5.1,0,0,0,2.16-.318c.56-.239.88-.638.96-1.594,0-.239.16-.319.24-.319s.16.159.16.319a19.965,19.965,0,0,1-.32,2.151c0,.638-.32.638-1.2.638-3.44,0-4.88-.16-5.52-.16H218.9c-.24,0-.32,0-.32-.159s0-.159.16-.159h.64c.48,0,.56-.558.64-1.275.08-1.594.08-3.266,0-4.86Z" transform="translate(-43.54 -29.641)" fill="#fff"/>
      <path id="Path_36043" data-name="Path 36043" d="M232.739,162.844a8.929,8.929,0,0,1-2.64-6.613,9.17,9.17,0,0,1,2.64-6.136,9.281,9.281,0,0,1,6.8-2.39,15.249,15.249,0,0,1,3.28.318,21.779,21.779,0,0,0,2.24.32c.24,0,.32.158.32.238v3.586c0,.32,0,.478-.24.478s-.16-.158-.16-.478a3.464,3.464,0,0,0-.88-2.31,7.525,7.525,0,0,0-4.48-1.275,6.678,6.678,0,0,0-5.12,1.674,7.558,7.558,0,0,0-2,5.817,8.007,8.007,0,0,0,7.76,8.207h.24a5.412,5.412,0,0,0,3.92-1.116,4.082,4.082,0,0,0,.8-1.912c0-.239,0-.318.24-.318s0,.159,0,.318a20.38,20.38,0,0,1-.64,3.028c-.16.4-.16.4-.56.638a11.255,11.255,0,0,1-4,.478A10.4,10.4,0,0,1,232.9,163" transform="translate(-46.019 -29.537)" fill="#fff"/>
      <path id="Path_36044" data-name="Path 36044" d="M265.28,158.565v4.861c0,.956.16,1.115.96,1.274h.96c.16,0,.16,0,.16.16s0,.159-.4.159h-4.8c-.24,0-.32,0-.32-.159v-.16h.72c.48,0,.56-.558.64-1.274.08-.638,0-2.63,0-4.861V156.1h-9.28v2.47c-.08,1.594-.08,3.267,0,4.861a1.151,1.151,0,0,0,.88,1.274h1.04a.157.157,0,0,1,.16.16c0,.159-.16.159-.4.159h-4.8c-.24,0-.4,0-.4-.159s0-.16.16-.16h.64c.48,0,.56-.558.64-1.274.08-1.594.08-3.267,0-4.861v-8.845a1.1,1.1,0,0,0-.96-1.274H250s0-.16.32-.16h4.8c.24,0,.32,0,.4.16s0,0-.16,0h-.56c-.56,0-.8.478-.88,1.274s0,1.354,0,4.861v.478h9.44v-5.339a1.1,1.1,0,0,0-.96-1.274,2.722,2.722,0,0,0-.8-.08h-.16s0-.159.4-.159h4.64c.32,0,.4,0,.4.159s0,0-.16,0h-.56c-.64,0-.8.478-.8,1.275v4.86Z" transform="translate(-50 -29.641)" fill="#fff"/>
      <path id="Path_36045" data-name="Path 36045" d="M275.24,161.892c0,1.833.32,2.39.88,2.63h1.12c.16,0,.24,0,.24.159s-.16.159-.4.159h-4.56c-.16,0-.32,0-.32-.159s0-.159.16-.159a1.652,1.652,0,0,0,.88,0c.56-.159.72-.8.72-2.869V148.824c0-.876,0-1.115.24-1.115s.56.478.8.717,3.68,3.984,7.04,7.73c2.24,2.31,4.64,5.1,5.28,5.817l-.24-11.394c0-1.434-.16-1.913-.88-2.072a4.226,4.226,0,0,0-1.04-.08h4.56c.24,0,.4,0,.4.16s0,0-.24,0h-.56c-.72,0-.8.637-.8,1.992V163.8c0,1.434,0,1.594-.16,1.594s-.48-.238-1.68-1.434c-.24-.239-3.44-3.506-5.76-6.056s-5.12-5.658-5.84-6.374Z" transform="translate(-54.44 -29.542)" fill="#fff"/>
      <path id="Path_36046" data-name="Path 36046" d="M302.3,147.7a8.139,8.139,0,0,1,8.72,7.49v.956a8.882,8.882,0,0,1-8.48,9.165h-.4a8.339,8.339,0,0,1-8.64-8.128v-.638a8.654,8.654,0,0,1,8.56-8.764.294.294,0,0,1,.24-.08m.48,16.733c2,0,6.16-1.194,6.16-7.728,0-5.26-3.28-8.208-6.72-8.208-3.52,0-6.56,2.47-6.56,7.41,0,4.86,3.12,8.526,7.12,8.526" transform="translate(-58.7 -29.537)" fill="#fff"/>
      <path id="Path_36047" data-name="Path 36047" d="M318.38,158.565c0,3.267,0,4.7.48,5.1s.96.478,2.64.478c1.2,0,2.16,0,2.64-.638a2.884,2.884,0,0,0,.56-1.354c0-.159,0-.239.16-.239s.16,0,.16.319a18.731,18.731,0,0,1-.32,2.231c-.16.478-.24.637-1.44.637-3.2,0-4.72-.159-6-.159H315.1c-.24,0-.4,0-.4-.159s0-.159.24-.159h.64c.48,0,.56-.558.64-1.275s0-2.63,0-4.861v-8.844c0-.718-.16-1.116-.96-1.275h-.96s0-.159.4-.159h4.88c.24,0,.32,0,.32.159s0,0-.16,0h-.72c-.64,0-.88.478-.88,1.275-.08.8,0,1.354,0,4.86Z" transform="translate(-62.86 -29.641)" fill="#fff"/>
      <path id="Path_36048" data-name="Path 36048" d="M335.78,147.689a8.139,8.139,0,0,1,8.72,7.49v.877a8.762,8.762,0,0,1-8.4,9.164h-.56a8.353,8.353,0,0,1-8.64-8.208v-.638a8.655,8.655,0,0,1,8.56-8.765.6.6,0,0,0,.32.08m.4,16.733c2,0,6.16-1.194,6.16-7.728,0-5.26-3.2-8.208-6.72-8.208s-6.48,2.47-6.48,7.41c0,4.86,3.04,8.526,7.04,8.526" transform="translate(-65.38 -29.522)" fill="#fff"/>
      <path id="Path_36049" data-name="Path 36049" d="M362.939,159.2c0-1.833,0-2.072-.96-2.31h-.8a.172.172,0,0,1-.16-.16s0-.159.32-.159h4.8c.24,0,.32,0,.32.159a.172.172,0,0,1-.16.16h-.56c-.56.159-.72.558-.8,1.354a22.193,22.193,0,0,0,0,2.31v2.55c0,1.036,0,1.116-.32,1.2a11.982,11.982,0,0,1-4.72,1.035,11.189,11.189,0,0,1-7.36-2.39,9.029,9.029,0,0,1-2.64-6.374,8.355,8.355,0,0,1,3.76-7.33,10.879,10.879,0,0,1,5.92-1.434,16.867,16.867,0,0,1,3.44.4c.56.08,1.2.159,1.76.239a.347.347,0,0,1,.32.159s0,.956-.16,3.187c0,.318,0,.478-.16.478s0,0-.16-.319a2.614,2.614,0,0,0-.48-1.514,6.573,6.573,0,0,0-5.28-1.833,6.243,6.243,0,0,0-6.96,5.578,5.32,5.32,0,0,0,0,1.594,8.914,8.914,0,0,0,2.4,6.215,7.922,7.922,0,0,0,5.84,2.39,5.038,5.038,0,0,0,2.64-.478.7.7,0,0,0,.4-.8Z" transform="translate(-69.979 -29.56)" fill="#fff"/>
      <path id="Path_36050" data-name="Path 36050" d="M376.68,159.2a5.123,5.123,0,0,0-.48-2.39c-.16-.4-3.12-5.259-3.92-6.454a7.576,7.576,0,0,0-1.52-1.673,4.837,4.837,0,0,0-.96-.4h4.56l-.32.238a.438.438,0,0,0-.24.4,1.6,1.6,0,0,0,.24.877c.4.638,3.68,6.374,4.08,7.012.4-.956,3.28-5.817,3.76-6.534a2.675,2.675,0,0,0,.4-1.116c0-.318,0-.558-.4-.638s-.32,0-.32-.238.16,0,.4,0h4s0,.159-.32.159a2.617,2.617,0,0,0-1.04.318,4.289,4.289,0,0,0-1.2,1.2,79.164,79.164,0,0,0-4.24,7.092,5.223,5.223,0,0,0-.32,2.231V163.5c0,.957.24,1.116.96,1.275h1.04c.16,0,.16,0,.16.159s0,.159-.32.159h-4.8c-.24,0-.4,0-.4-.159,0-.079,0-.159.08-.159h.8c.4,0,.56-.558.72-1.275a10.209,10.209,0,0,0,0-2.23Z" transform="translate(-73.96 -29.635)" fill="#fff"/>
      <path id="Path_36051" data-name="Path 36051" d="M63.236,162.784a8.093,8.093,0,0,1-2.64-6.534,8.611,8.611,0,0,1,2.48-6.056,9.1,9.1,0,0,1,6.72-2.39,14.06,14.06,0,0,1,3.2.318,21.561,21.561,0,0,0,2.24.319c.24,0,.32.159.32.239v3.586c0,.318,0,.478-.16.478s-.16-.159-.16-.478a3.186,3.186,0,0,0-.96-2.311,7.948,7.948,0,0,0-4.48-1.274,7.049,7.049,0,0,0-5.12,1.594,7.578,7.578,0,0,0-2,5.737,7.94,7.94,0,0,0,7.76,8.127h.16a5.123,5.123,0,0,0,3.84-1.115,5.338,5.338,0,0,0,.8-1.833c0-.239,0-.318.24-.318s.16.159.16.318a17.916,17.916,0,0,1-.48,2.869c0,.4-.16.478-.56.637a11.256,11.256,0,0,1-4,.478,10.4,10.4,0,0,1-7.36-2.39" transform="translate(-12.116 -29.557)" fill="#fff"/>
      <path id="Path_36052" data-name="Path 36052" d="M103.74,154.621V149.84a1.146,1.146,0,0,0-.96-1.275h-.88c0-.159,0-.159.4-.159h8.8v.239a4.64,4.64,0,0,0-.16,1.036v1.514c0,.319,0,.239-.16.239s-.16,0-.16-.318a1.353,1.353,0,0,0,0-.8c-.16-.4-.4-.638-1.6-.8h-3.04c-.32,0,0,0,0,.238v6.374h3.52c.48,0,.8,0,1.04-.318s.24-.318.32-.318,0,0,0,.159a6.168,6.168,0,0,0-.16,1.274v1.434c0,.159,0,.4-.16.4s-.16,0-.16-.239v-.717c0-.318-.32-.717-1.12-.8-.88-.08-2.8,0-3.2,0s-.16,0-.16.159v5.817c0,1.514.4,1.833,2.64,1.833a9.979,9.979,0,0,0,2.16-.239c.56-.239.8-.717.96-1.594,0-.239,0-.318.24-.318s0,.159,0,.318a19.636,19.636,0,0,1-.24,2.151c0,.558-.32.558-1.2.558h-7.6c-.24,0-.32,0-.32-.16s0,0,.16,0h.64c.48,0,.56-.637.64-1.274s0-2.63,0-4.861Z" transform="translate(-20.38 -29.681)" fill="#fff"/>
      <path id="Path_36053" data-name="Path 36053" d="M122.54,148.586c.24-.718.4-.877.48-.877s.24.159.48.8,3.84,10.04,5.12,13.386c.8,1.992,1.44,2.311,1.92,2.47a1.652,1.652,0,0,0,.88,0h.24a.7.7,0,0,1-.48.159h-3.52c-.4,0-.64,0-.64-.159s0,0,.16,0,.24-.239,0-.558l-1.84-5.418h-5.12a.156.156,0,0,0-.16.159l-1.36,3.9a9.255,9.255,0,0,0-.32,1.434c0,.478.48.638.8.638h.48s0,.159-.32.159H115.1c-.24,0-.4,0-.4-.159s0,0,.24,0h.64c1.04-.159,1.44-.956,1.84-2.072Zm2.32,8.924v-.159l-2.08-5.976c-.08-.319-.24-.319-.32,0l-2,5.976v.159Z" transform="translate(-22.94 -29.542)" fill="#fff"/>
      <path id="Path_36054" data-name="Path 36054" d="M139.113,158.387c0,1.594.08,3.187.24,4.861,0,.638.24,1.115.88,1.2h1.12s0,.159-.32.159h-4.8c-.24,0-.4,0-.4-.159s0,0,.16,0h.64c.48,0,.56-.558.64-1.2a48.529,48.529,0,0,0,.16-4.861v-9.322h-3.2c-1.36,0-1.92.159-2.32.717-.16.239-.24.4-.4.638,0,.239,0,.239-.24.239s0,0,0-.16.08-2.071.08-2.31c0-.159.16-.478.24-.478a3.961,3.961,0,0,0,.96.319h10a10.716,10.716,0,0,0,2.24-.239v2.789c0,.239,0,.239-.16.239s-.16,0-.16-.4v-.239c0-.638-.64-1.115-2.64-1.2h-2.8Z" transform="translate(-26.233 -29.542)" fill="#fff"/>
      <path id="Path_36055" data-name="Path 36055" d="M153.04,158.526c-.08,1.594-.08,3.187,0,4.861,0,.638.16,1.115.88,1.274h1.2s0,.16-.32.16H150c-.24,0-.32,0-.32-.16s0,0,.16,0h.72c.4,0,.56-.637.64-1.274s0-2.63,0-4.861v-8.686c0-.637-.24-1.2-.8-1.274h-.8c0-.159,0-.159.32-.159h4.4c.64,0,.4,0,.4.159s0,0-.16,0H154c-.56,0-.8.478-.8,1.274v4.782Z" transform="translate(-29.92 -29.681)" fill="#fff"/>
      <path id="Path_36056" data-name="Path 36056" d="M165.72,162.291c1.28-2.948,4.24-10.6,4.72-12.271.08-.318.16-.558.24-.876a.437.437,0,0,0-.32-.478h-1.12s0-.159.48-.159h3.92c.24,0,.4,0,.4.159s0,.159-.24.159a2.224,2.224,0,0,0-1.04.239,4.89,4.89,0,0,0-1.2,2.072c-.24.638-1.36,3.346-2.48,6.056-1.36,3.266-2.32,5.578-2.88,6.693s-.72,1.674-.96,1.674-.4-.319-.8-1.355l-5.28-13.625c-.48-1.275-.8-1.514-1.6-1.754h-.8a.156.156,0,0,1-.16-.159c0-.159.24-.159.56-.159h4.72c.4,0,.64,0,.64.159s0,.159-.24.159a1.376,1.376,0,0,0-.8,0,.531.531,0,0,0-.32.4,17.256,17.256,0,0,0,.56,1.913Z" transform="translate(-31.32 -29.701)" fill="#fff"/>
      <path id="Path_36057" data-name="Path 36057" d="M181.02,154.621V149.84a1.146,1.146,0,0,0-.96-1.275h-.96s0-.159.32-.159h8.88c.16,0,0,0,0,.239a4.64,4.64,0,0,0-.16,1.036v1.434c0,.238,0,.238-.16.318-.16,0-.16,0-.16-.318a2.816,2.816,0,0,0-.16-.8c-.16-.4-.4-.638-1.52-.8H183.1c-.4,0,0,0,0,.238v6.374h3.52c.48,0,.88,0,1.04-.318s.24-.318.4-.318c.08,0,0,0,0,.159a5.489,5.489,0,0,1-.16,1.274,3.956,3.956,0,0,0,0,1.434c0,.159,0,.4-.16.4s-.16,0-.16-.159v-.717c0-.319-.32-.718-1.2-.8s-2.64,0-3.2,0v5.976c0,1.514.4,1.833,2.64,1.833a8.761,8.761,0,0,0,2.08-.239c.64-.239.88-.718,1.04-1.594,0-.239,0-.319.16-.319s.16.16.16.319-.24,1.673-.32,2.151-.32.558-1.2.558h-7.6c-.24,0-.32,0-.32-.159s0,0,.16,0h.64c.4,0,.56-.558.64-1.2s0-2.63,0-4.861Z" transform="translate(-35.82 -29.681)" fill="#fff"/>
      <path id="Path_36058" data-name="Path 36058" d="M76.04,111.633c0,4.143.64,5.5,2,5.9.8.159,1.68.238,2.48.318.24,0,.4,0,.4.318s-.32.4-.96.4c-2.88,0-4.88-.159-5.28-.159s-2.64.159-4.88.159c-.48,0-.8,0-.8-.4s.16-.318.4-.318a6,6,0,0,0,2.08-.318c1.28-.4,1.52-1.833,1.52-6.454V81.913c0-1.992.16-2.63.56-2.63s1.28,1.115,1.76,1.673c.48.478,8.32,9,16.08,17.371,5.04,5.258,10.48,11.554,12.16,13.226L103,85.976c0-3.266-.4-4.382-2-4.781a13.087,13.087,0,0,0-2.48-.239c-.32,0-.4-.159-.4-.318s.4-.4,1.04-.4c2.32,0,4.72.159,5.28.159s2.24-.159,4.32-.159c.56,0,.88,0,.88.4s-.16.318-.56.318a6.175,6.175,0,0,0-1.2.16c-1.68.318-1.84,1.514-1.84,4.542v29.721c0,3.347,0,3.586-.48,3.586s-1.04-.558-3.68-3.266c-.56-.478-7.84-7.968-13.28-13.785-5.84-6.3-11.6-12.75-13.28-14.582Z" transform="translate(-13.8 -15.857)" fill="#fff"/>
      <path id="Path_36059" data-name="Path 36059" d="M360.08,105.716a10.568,10.568,0,0,0-1.2-5.418c-.32-.8-7.2-12.111-9.04-14.821a15.349,15.349,0,0,0-3.6-3.586,4.2,4.2,0,0,0-2.16-.8c-.24,0-.48,0-.48-.4s.16-.318.64-.318l5.12.159c.32,0,2.32-.159,4.32-.159.56,0,.64.159.64.318,0,.239-.32.239-.8.478a.96.96,0,0,0-.64.956,5.821,5.821,0,0,0,.64,1.992c.8,1.514,8.56,14.821,9.44,16.255.96-2.152,7.44-13.386,8.48-15.14a4.514,4.514,0,0,0,.88-2.629c0-.718-.16-1.355-.8-1.434-.64-.159-.8-.239-.8-.478s.32-.318.8-.318c1.36,0,2.96.159,3.44.159l4.96-.159c.4,0,.64,0,.64.318s-.24.4-.64.4a4.938,4.938,0,0,0-2.32.718,10.334,10.334,0,0,0-2.64,2.629,170.269,170.269,0,0,0-9.84,16.335,12.784,12.784,0,0,0-.8,5.179v4.3c0,.8,0,3.028.16,5.179,0,1.434.56,2.63,2.16,2.869.8.08,1.52.159,2.32.239.32,0,.4,0,.4.318s-.32.4-.88.4c-2.64,0-6-.159-6.32-.159s-3.52.159-5.04.159c-.56,0-.8,0-.8-.4s0-.318.4-.318a5.569,5.569,0,0,0,1.6-.239c1.04-.239,1.52-1.354,1.6-2.869.16-2.151.16-4.382.16-5.179Z" transform="translate(-68.72 -16.074)" fill="#fff"/>
      <path id="Path_36060" data-name="Path 36060" d="M26.72,95.1v-11c0-1.594-.48-2.63-2.16-2.948A11.987,11.987,0,0,0,22.8,81c-.24,0-.4,0-.4-.239s.24-.478.8-.478c2.32,0,5.28.159,5.84.159s3.52-.159,5.12-.159c.56,0,.8,0,.8.478s-.24.239-.4.239a7,7,0,0,0-1.28.159c-1.36.239-1.76,1.115-1.84,2.948s0,3.028,0,11v7.171c0,7.331,1.68,10.6,3.84,12.67a10.076,10.076,0,0,0,7.68,2.868,10.469,10.469,0,0,0,8-3.745c2.16-3.028,2.88-7.251,2.88-12.59V84.1c0-1.594-.48-2.63-2.16-2.948A13.081,13.081,0,0,0,49.92,81c-.24,0-.4,0-.4-.239s.24-.478.8-.478c2.32,0,5.12.159,5.28.159s2.64-.159,4.32-.159c.56,0,.8,0,.8.478s-.24.239-.4.239a7,7,0,0,0-1.28.159c-1.36.239-1.76,1.115-1.92,2.948-.08,1.833,0,3.028,0,11v5.418c0,5.5-.64,11.713-4.72,15.3a15.341,15.341,0,0,1-10.48,3.825,15.6,15.6,0,0,1-10.48-3.665c-2.48-2.39-4.48-5.976-4.48-13.466Z" transform="translate(-4.48 -16.056)" fill="#fff"/>
      <path id="Path_36061" data-name="Path 36061" d="M130.3,104.124c0,4.94,0,9,.24,11.155.16,1.514.48,2.63,2,2.869.72,0,1.84.159,2.32.159s.4.159.4.318-.24.4-.8.4c-2.8,0-6-.16-6.24-.16s-3.52.16-5.04.16c-.56,0-.8,0-.8-.4s0-.318.4-.318a11.045,11.045,0,0,0,1.52-.159c1.04-.239,1.28-1.354,1.52-2.869.24-2.151.24-6.135.24-11.155V84.2c0-1.594-.64-2.63-1.76-2.869a5.57,5.57,0,0,0-1.6-.239c-.16,0-.4,0-.4-.239s.24-.478.8-.478c1.68,0,4.88.159,5.12.159s3.44-.159,5.04-.159c.56,0,.8,0,.8.478s-.24.239-.4.239a7.071,7.071,0,0,0-1.28.159c-1.36.239-1.76,1.116-1.92,2.949-.08,1.832,0,3.027,0,11Z" transform="translate(-24.46 -16.076)" fill="#fff"/>
      <path id="Path_36062" data-name="Path 36062" d="M159.04,112.709c2.88-7.012,9.76-24.7,10.88-28.366a5.461,5.461,0,0,0,.4-1.913,1.4,1.4,0,0,0-.64-1.2A7.927,7.927,0,0,0,167.76,81c-.32,0-.56,0-.56-.239s.32-.478,1.12-.478c2,0,4.4.159,5.04.159s2.48-.159,4-.159c.56,0,.88,0,.88.319s-.24.4-.64.4a4.619,4.619,0,0,0-2.48.637c-.64.478-1.44,1.355-2.8,4.861-.56,1.434-3.12,7.57-5.68,13.865-3.12,7.49-5.28,12.988-6.56,15.538-1.44,3.028-1.68,3.9-2.16,3.9s-.88-.718-1.84-3.188L143.6,85.3c-1.12-2.869-1.92-3.426-3.68-3.984a7.928,7.928,0,0,0-1.92-.239c-.32,0-.4-.159-.4-.4s.56-.318,1.36-.318c2.48,0,5.28.159,6,.159s2.8-.159,4.72-.159c.96,0,1.36,0,1.36.318s-.16.4-.48.4a7.928,7.928,0,0,0-1.92.239,1.067,1.067,0,0,0-.64,1.036,20.014,20.014,0,0,0,1.36,4.223Z" transform="translate(-27.52 -16.056)" fill="#fff"/>
      <path id="Path_36063" data-name="Path 36063" d="M193.48,95.02c0-7.968,0-9.4-.16-11s-.48-2.63-2.16-2.948a11.987,11.987,0,0,0-1.76-.159c-.24,0-.4,0-.4-.239s.24-.478.8-.478c2.32,0,5.52.159,5.76.159h11.68c.72-.079,1.44-.159,2.24-.239.24,0,.48-.238.72-.238s.24.159.24.478c0,.239-.24.957-.4,2.39,0,.478-.16,2.63-.24,3.347s-.16.558-.4.558-.4-.239-.4-.638a4.658,4.658,0,0,0-.32-1.833c-.32-.8-.88-1.434-3.6-1.753-.88,0-6.4-.159-6.96-.159s-.32.159-.32.558v14.1c0,.319,0,.478.32.478h8a3.684,3.684,0,0,0,2.48-.717c.48-.478.56-.638.72-.638.24,0,.24,0,.24.4s-.24,1.2-.4,2.868c0,1.036-.16,2.949-.16,3.347s0,.956-.4.956-.32-.239-.32-.478a6.04,6.04,0,0,0-.24-1.673c-.16-.718-.64-1.594-2.64-1.754-1.36-.159-6.4-.238-7.28-.238a.365.365,0,0,0-.4.318v13.227c.16,3.586.96,4.223,5.92,4.223a14.875,14.875,0,0,0,4.96-.558c1.28-.558,1.92-1.594,2.32-3.666,0-.558.16-.717.4-.717s.32.4.32.717c-.16,1.674-.32,3.346-.64,5.02-.4,1.354-.8,1.354-2.64,1.354-7.68,0-11.12-.318-12.56-.318-.24,0-3.44.159-5.04.159-.56,0-.8,0-.8-.4s0-.319.4-.319a9.8,9.8,0,0,0,1.52-.159c1.04-.239,1.28-1.354,1.52-2.868.24-2.152.24-6.136.24-11.156Z" transform="translate(-37.8 -15.976)" fill="#fff"/>
      <path id="Path_36064" data-name="Path 36064" d="M260.9,118.128c-.72-.4-.8-.558-.8-1.912,0-2.63.24-4.622.24-5.259,0-.718.16-.8.4-.8s.4.159.4.558a7.721,7.721,0,0,0,.16,1.912,7.639,7.639,0,0,0,14.8-1.673c0-3.586-1.52-5.578-5.84-9.243L267.94,99.8c-5.28-4.462-6.64-7.65-6.64-11.156,0-5.418,4.08-9.163,10.64-9.163a24.478,24.478,0,0,1,4.8.478,6.7,6.7,0,0,0,1.76.239c.4,0,.56,0,.56.4s-.24,1.912-.24,5.258c0,.8,0,1.2-.4,1.2s-.4-.238-.4-.717a9.73,9.73,0,0,0-.64-2.63c-.32-.638-1.68-2.63-6.32-2.63a5.831,5.831,0,0,0-6.4,5.179v.718c0,2.948,1.44,4.622,6.24,8.606l1.44,1.115c6,4.781,7.44,7.968,7.44,12.032a10.444,10.444,0,0,1-4.32,8.446,13.218,13.218,0,0,1-7.68,2.151,14.474,14.474,0,0,1-6.88-1.2" transform="translate(-52.02 -15.896)" fill="#fff"/>
      <path id="Path_36065" data-name="Path 36065" d="M295.92,104.1c0,4.94,0,9,.24,11.155.16,1.514.48,2.63,2,2.869.72,0,1.84.159,2.32.159s.4.159.4.318-.24.4-.8.4c-2.8,0-6-.16-6.24-.16s-3.36.16-5.04.16c-.56,0-.8,0-.8-.4s0-.318.4-.318a10.948,10.948,0,0,0,1.6-.159c1.04-.239,1.28-1.354,1.52-2.869.24-2.151.24-6.135.24-11.155v-20c0-1.594-.64-2.63-1.76-2.869A5.569,5.569,0,0,0,288.4,81c-.16,0-.4,0-.4-.239s.24-.478.8-.478c1.68,0,4.88.159,5.12.159s3.44-.159,5.04-.159c.56,0,.8,0,.8.478s-.16.239-.4.239a7,7,0,0,0-1.28.159c-1.44.239-1.84,1.115-1.92,2.948s0,3.028,0,11Z" transform="translate(-57.6 -16.056)" fill="#fff"/>
      <path id="Path_36066" data-name="Path 36066" d="M321.28,103.925c0,4.94,0,9,.24,11.155.16,1.514.48,2.63,2,2.869.72,0,1.84.159,2.32.159s.4.159.4.318-.24.4-.8.4c-2.8,0-6-.16-6.24-.16s-3.52.16-5.04.16c-.56,0-.8,0-.8-.4s0-.318.4-.318a5.207,5.207,0,0,0,1.52-.159c1.04-.239,1.28-1.354,1.52-2.869.24-2.151.24-6.135.24-11.155V82.331h-7.52c-3.12,0-4.4.4-5.12,1.674a10.146,10.146,0,0,0-.88,1.594.452.452,0,0,1-.48.478c-.24,0-.24-.159-.24-.478s1.04-4.941,1.12-5.259c.08-.4.32-.956.56-.956a10.409,10.409,0,0,0,2.24.638c1.44.159,3.44.238,4,.238h19.12a27.861,27.861,0,0,0,5.12-.478c.24,0,.24.239.24.638,0,1.514-.16,5.019-.16,5.578s-.16.717-.4.717-.4-.159-.4-.877v-.558c-.24-1.514-1.36-2.63-6.24-2.789h-6.4Z" transform="translate(-60.56 -15.877)" fill="#fff"/>
      <path id="Path_36067" data-name="Path 36067" d="M223.5,95.089v-11c0-1.674-.48-2.63-2.24-2.949a12.1,12.1,0,0,0-1.76-.159c-.16,0-.4,0-.4-.318s.24-.4.8-.4c2.32,0,5.52.159,5.68.159.24,0,4.48-.159,6-.159a15.768,15.768,0,0,1,9.28,2.231,9.106,9.106,0,0,1,3.52,6.932c0,3.825-1.52,7.57-6.16,11.793,1.84,2.31,8.16,11.155,8.16,11.155,6.48,8.366,13.6,15.219,23.92,15.458,4.32.159,4.72-1.594,5.76-1.2s-2.88,2.231-5.6,2.63c-1.52.239-13.84,3.107-27.36-15.219,0,0-7.36-10.119-8.4-11.474a.728.728,0,0,0-.64-.318H227.9c-.24,0-.4,0-.4.4v1.2c0,4.94,0,8.924.24,11.076,0,1.514.48,2.629,2,2.789a21.34,21.34,0,0,0,2.32.159c.32,0,.4.159.4.318s-.24.4-.8.4c-2.8,0-6-.159-6.24-.159s-3.2.159-4.8.159c-.56,0-.8,0-.8-.4s0-.318.4-.318a9.9,9.9,0,0,0,1.52-.159c1.04-.239,1.28-1.355,1.52-2.789.24-2.152.24-6.136.24-11.076Zm4,4.542a.812.812,0,0,0,.4.638,13.322,13.322,0,0,0,5.28.8,6.441,6.441,0,0,0,3.84-.956,9.589,9.589,0,0,0,3.12-7.969c0-6.294-3.36-10.2-8.8-10.2a16.748,16.748,0,0,0-3.44.319.709.709,0,0,0-.4.638Z" transform="translate(-43.82 -16.045)" fill="#fff"/>
      <rect id="Rectangle_5348" data-name="Rectangle 5348" width="191.36" height="0.717" transform="translate(16.96 110.916)" fill="#fff"/>
      <rect id="Rectangle_5349" data-name="Rectangle 5349" width="73.84" height="0.717" transform="translate(237.68 110.916)" fill="#fff"/>
      <path id="Path_36068" data-name="Path 36068" d="M313.2,57.55c0,3.586.56,4.7,1.68,5.02a9.979,9.979,0,0,0,2.16.239c.24,0,.4,0,.4.239s-.24.4-.8.4c-2.4,0-4.16-.16-4.56-.16s-2.24.16-4.16.16c-.4,0-.72,0-.72-.4s.16-.239.32-.239a6.268,6.268,0,0,0,1.76-.239c1.12-.319,1.36-1.594,1.36-5.5V32.131c0-1.674,0-2.151.48-2.151s1.04.956,1.52,1.354c.48.478,7.12,7.729,13.76,14.9,4.32,4.621,8.96,9.88,10.4,11.314l-.48-22.072c0-2.789-.4-3.825-1.68-4.143a9.979,9.979,0,0,0-2.16-.239c-.32,0-.32-.159-.32-.318s.32-.319.88-.319h8.16c.48,0,.8,0,.8.319s-.16.318-.48.318a2.374,2.374,0,0,0-1.04.159c-1.44.319-1.6,1.2-1.6,3.825V60.5c0,2.869,0,3.108-.4,3.108s-.88-.478-3.2-2.789c-.48-.4-6.72-6.773-11.28-11.793-5.04-5.418-9.92-10.917-11.28-12.43Z" transform="translate(-61.44 -5.996)" fill="#fff"/>
      <path id="Path_36069" data-name="Path 36069" d="M29.88,51.255c0,6.3.16,9.163.96,9.881.8.8,1.76,1.035,5.12,1.035,2.32,0,4.24,0,5.28-1.274a6.408,6.408,0,0,0,1.12-2.63c0-.318,0-.558.4-.558s.24.159.24.638a27.589,27.589,0,0,1-.64,4.382c-.32,1.035-.4,1.2-2.64,1.2-6.24,0-9.12-.239-11.6-.239-.4,0-2.96.159-4.24.159-.48,0-.72,0-.72-.318s0-.239.32-.239a7.071,7.071,0,0,0,1.28-.159c.88-.16,1.12-1.116,1.28-2.39.24-1.833.24-5.259.24-9.4V34.362c0-1.434-.4-2.151-1.84-2.47a8.864,8.864,0,0,0-1.52-.159c-.16,0-.32,0-.32-.239s.24-.319.72-.319h9.6c.48,0,.72,0,.72.319s-.16.239-.32.239a7.048,7.048,0,0,0-1.36.159c-1.28.239-1.6.956-1.68,2.47s0,2.63,0,9.4Z" transform="translate(-4.52 -6.235)" fill="#fff"/>
      <path id="Path_36070" data-name="Path 36070" d="M56.62,51.036c0,4.223,0,7.57.24,9.4.16,1.275.4,2.231,1.68,2.39.56,0,1.52.159,1.92.159s.32.159.32.239c0,.159-.24.318-.72.318-2.4,0-5.12-.159-5.28-.159-.24,0-2.96.159-4.24.159-.48,0-.64,0-.64-.318s0-.239.32-.239a7,7,0,0,0,1.28-.159c.88-.159,1.12-1.115,1.28-2.39.24-1.833.24-5.259.24-9.4V34.064c0-1.434-.48-2.231-1.44-2.47a7.96,7.96,0,0,0-1.36-.159c-.16,0-.32,0-.32-.239s.16-.318.64-.318h8.64c.48,0,.72,0,.72.318s-.16.239-.32.239a4.727,4.727,0,0,0-1.04.159c-1.2.239-1.52.956-1.6,2.47s0,2.63,0,9.4Z" transform="translate(-9.98 -6.175)" fill="#fff"/>
      <path id="Path_36071" data-name="Path 36071" d="M103.24,57.869c.16,1.594.48,3.984,2.32,4.622a10.089,10.089,0,0,0,2.64.4c.24,0,.4,0,.4.239s-.4.4-.96.4c-.96,0-5.6-.159-7.2-.239-1.04,0-1.2-.239-1.2-.478s0-.239.32-.239.24-.8.16-1.594l-2.08-22.47h-.16L86.84,61.136c-.88,1.912-1.04,2.31-1.44,2.31s-.48-.4-1.36-1.992C82.92,59.3,79.16,51.813,79,51.414c-.24-.4-5.28-11.235-5.76-12.43h-.16l-1.6,20.08V61.3A1.439,1.439,0,0,0,72.6,62.65a6.119,6.119,0,0,0,1.68.239c.16,0,.32,0,.32.239s-.24.4-.8.4c-1.6,0-3.68-.16-4-.16-.4,0-2.48.16-3.68.16-.4,0-.72,0-.72-.4s.16-.239.4-.239a3.478,3.478,0,0,0,1.28,0c1.44-.239,1.6-1.992,1.76-3.666l3.28-28.366c0-.478.24-.8.48-.8s.4.159.64.638L86.52,57.949,99.24,30.7c.16-.4.32-.718.64-.718s.48.319.56,1.2Z" transform="translate(-13.08 -5.996)" fill="#fff"/>
      <path id="Path_36072" data-name="Path 36072" d="M168.42,30.079c9.76,0,17.04,6.135,17.04,16.255A17.06,17.06,0,0,1,169.06,64.1h-.96c-11.92,0-16.8-9.243-16.8-17.052a16.833,16.833,0,0,1,16.64-16.972Zm.96,32.43c3.92,0,11.92-2.31,11.92-14.9,0-10.438-6.32-16.016-13.28-16.016s-12.64,4.781-12.64,14.342c0,10.119,6.08,16.654,14,16.574" transform="translate(-30.26 -6.016)" fill="#fff"/>
      <path id="Path_36073" data-name="Path 36073" d="M263.04,57.61h.16c1.12-3.984,5.12-16.574,6.64-22.151a10.892,10.892,0,0,0,.64-2.789c0-.8-.48-1.275-2.48-1.275-.24,0-.4,0-.4-.318s.24-.319.72-.319h8c.4,0,.64,0,.64.239s0,.318-.4.318a5.047,5.047,0,0,0-1.52.239c-1.28.478-2,2.311-2.8,4.7-1.92,5.5-6.24,19.282-8,24.143-1.12,3.267-1.36,3.745-1.76,3.745-.48,0-.72-.558-1.36-2.31L252.64,37.69c-1.6,4.222-7.52,20.079-9.04,24.143-.64,1.833-.96,2.31-1.44,2.31s-.64-.478-1.52-3.426L232.72,34.98c-.72-2.231-1.28-2.948-2.32-3.426a8.1,8.1,0,0,0-2-.239c-.24,0-.4,0-.4-.318s.24-.318.72-.318h9.6c.64,0,.8,0,.8.318s-.24.318-.4.318a6.119,6.119,0,0,0-1.68.239,1.361,1.361,0,0,0-.56,1.036,35.115,35.115,0,0,0,.8,3.984c.64,2.789,5.28,18.726,5.76,21.036l9.2-24.781c.64-1.753.8-1.992,1.04-1.992s.64.558,1.12,1.992Z" transform="translate(-45.6 -6.136)" fill="#fff"/>
      <path id="Path_36074" data-name="Path 36074" d="M297.26,51.036c0,4.223,0,7.57.16,9.4,0,1.275.4,2.231,1.68,2.39.64,0,1.6.159,1.92.159s.32.159.32.319-.24.318-.72.318c-2.4,0-5.12-.159-5.28-.159-.24,0-2.96.159-4.24.159-.48,0-.72,0-.72-.318s0-.319.4-.319a7,7,0,0,0,1.28-.159c.8-.159,1.04-1.115,1.28-2.39.16-1.833.16-5.259.16-9.4V33.984c0-1.434-.56-2.231-1.44-2.39a7.111,7.111,0,0,0-1.36-.159c-.16,0-.4,0-.4-.239s.24-.318.72-.318h8.64c.48,0,.72,0,.72.318s-.16.239-.32.239a4.727,4.727,0,0,0-1.04.159c-1.2.239-1.52.956-1.6,2.47s0,2.63,0,9.4Z" transform="translate(-58.06 -6.175)" fill="#fff"/>
      <path id="Path_36075" data-name="Path 36075" d="M376.056,52.5c0-3.586-.24-3.984-2-4.542a8.813,8.813,0,0,0-1.44-.159c-.16,0-.32,0-.32-.239s.24-.319.64-.319h9.2c.48,0,.72,0,.72.319s-.16.239-.4.239a4.681,4.681,0,0,0-1.04.159c-1.2.239-1.52.956-1.6,2.55-.08,1.514,0,2.63,0,4.542v4.861c0,1.992,0,2.072-.56,2.31a20.363,20.363,0,0,1-9.2,1.992,21.539,21.539,0,0,1-14.24-4.621,16.864,16.864,0,0,1-5.12-12.43A16.4,16.4,0,0,1,357.9,32.9a21.529,21.529,0,0,1,11.52-2.63,45.786,45.786,0,0,1,6.64.718,17.7,17.7,0,0,0,3.52.4c.4,0,.56.238.56.4a52.53,52.53,0,0,0-.32,6.135c0,.717,0,.956-.4.877-.4,0-.24-.239-.32-.638a6.127,6.127,0,0,0-.96-2.869c-1.12-1.594-4.56-3.506-10.16-3.506a13.854,13.854,0,0,0-9.28,2.868,13.986,13.986,0,0,0-4.32,11,17.217,17.217,0,0,0,4.64,12.032,15.807,15.807,0,0,0,11.36,4.7,10.814,10.814,0,0,0,4.96-.957,1.706,1.706,0,0,0,.88-1.514Z" transform="translate(-70.136 -6.047)" fill="#fff"/>
      <path id="Path_36076" data-name="Path 36076" d="M123.5,43.446v-9.4c0-1.434-.4-2.23-1.84-2.47a8.9,8.9,0,0,0-1.44-.158c-.16,0-.32,0-.32-.24s.16-.318.64-.318h9.04c.48,0,.64,0,.64.318s-.16.24-.32.24a4.726,4.726,0,0,0-1.04.158c-1.2.24-1.52.957-1.6,2.47-.08,1.594,0,2.63,0,9.4v2.63h.16c.72-.877,8.56-8.845,10.16-10.6,1.2-1.275,2.32-2.39,2.32-3.187,0-.718-.24-.8-.56-.876s-.4-.16-.4-.4c0-.16.24-.24.56-.24h7.44c.48,0,.64,0,.64.24s0,.318-.4.318a5.461,5.461,0,0,0-2.48.637,15.565,15.565,0,0,0-4.72,3.746c-1.12,1.035-8.64,8.446-9.52,9.562,1.12,1.274,10.16,10.6,11.92,12.27a19.734,19.734,0,0,0,6.48,4.941,7.846,7.846,0,0,0,2.64.558c.32,0,.56,0,.56.239s-.24.319-.96.319h-5.2a8.817,8.817,0,0,1-5.28-2.63c-2-1.594-11.12-11.634-13.28-14.1h-.24v4.3c0,4.144,0,7.57.24,9.4.16,1.275.4,2.231,1.68,2.391.64,0,1.28.159,1.68.159s.32,0,.32.238-.24.319-.72.319h-9.2c-.48,0-.72,0-.72-.319s0-.238.32-.238a7.071,7.071,0,0,0,1.28-.159c.88-.16,1.04-1.116,1.28-2.391.24-1.833.24-5.258.24-9.4Z" transform="translate(-23.98 -6.155)" fill="#fff"/>
      <path id="Path_36077" data-name="Path 36077" d="M196.88,43.446v-9.4c0-1.434-.48-2.23-1.92-2.47a8.9,8.9,0,0,0-1.44-.158c-.16,0-.32,0-.32-.24s.24-.318.72-.318h9.04c.48,0,.72,0,.72.318s-.16.24-.32.24a5.453,5.453,0,0,0-1.12.158c-1.2.24-1.52.957-1.6,2.47-.08,1.594,0,2.63,0,9.4v2.63h.16c.72-.877,8.56-8.845,10.08-10.6,1.2-1.275,2.32-2.39,2.32-3.187,0-.718-.24-.8-.56-.876s-.4-.16-.4-.4c0-.16.24-.24.56-.24h7.44c.48,0,.64,0,.64.24s0,.318-.48.318a5.461,5.461,0,0,0-2.48.637,16,16,0,0,0-4.96,3.746c-1.12,1.035-8.64,8.446-9.52,9.562,1.12,1.274,10.16,10.6,11.92,12.27,3.68,3.426,4.4,4.145,6.48,4.941a7.846,7.846,0,0,0,2.64.558c.32,0,.56,0,.56.239s-.24.319-.96.319h-5.2a8.817,8.817,0,0,1-5.28-2.63c-2-1.594-11.12-11.634-13.28-14.1h-.24v4.3c0,4.144,0,7.57.24,9.4,0,1.275.32,2.231,1.68,2.391a12.054,12.054,0,0,0,1.68.159c.24,0,.32,0,.32.238s-.24.319-.72.319h-9.12c-.48,0-.64,0-.64-.319s0-.238.32-.238a7.071,7.071,0,0,0,1.28-.159c.88-.16,1.12-1.116,1.28-2.391.24-1.833.24-5.258.24-9.4Z" transform="translate(-38.64 -6.155)" fill="#fff"/>
    </g>
  </g>
</svg>
