<svg xmlns="http://www.w3.org/2000/svg" xmlns:xlink="http://www.w3.org/1999/xlink" width="53" height="40" viewBox="0 0 53 40">
    <defs>
        <clipPath id="clip-path">
            <rect id="Rectangle_5312" data-name="Rectangle 5312" width="53" height="40" fill="#0077b6"/>
        </clipPath>
    </defs>
    <g id="Group_30286" data-name="Group 30286" clip-path="url(#clip-path)">
        <path id="Path_34272" data-name="Path 34272" d="M.028,16.083H52.96v6.982a12.079,12.079,0,0,0-10.6-4.361,11.51,11.51,0,0,0-7.675,3.923,12.035,12.035,0,0,0,1.4,17.332c-.206.016-.358.038-.51.038Q20.888,40,6.2,40A5.977,5.977,0,0,1,0,33.756Q0,25.2,0,16.644c0-.179.016-.357.026-.561" fill="#0077b6"/>
        <path id="Path_34273" data-name="Path 34273" d="M.067,10.217A41.486,41.486,0,0,1,.1,5.162,5.819,5.819,0,0,1,6.131,0Q20.87,0,35.61,0q5.575,0,11.151,0A5.979,5.979,0,0,1,53,6.259c0,1.305,0,2.61,0,3.958Z" fill="#0077b6"/>
        <path id="Path_34274" data-name="Path 34274" d="M43.6,21.2a9.4,9.4,0,1,1-9.386,9.348A9.393,9.393,0,0,1,43.6,21.2m1.675,7.735c0-.659,0-1.228,0-1.8a1.685,1.685,0,0,0-1.645-1.827,1.663,1.663,0,0,0-1.7,1.823c-.006.581,0,1.163,0,1.8-.253,0-.433,0-.613,0-.459,0-.919-.01-1.378.008A1.637,1.637,0,0,0,38.309,30.6a1.655,1.655,0,0,0,1.683,1.671c.634.012,1.268,0,1.94,0,0,.657-.005,1.225,0,1.792A1.685,1.685,0,0,0,43.622,35.9a1.71,1.71,0,0,0,1.652-1.831c.005-.582,0-1.165,0-1.8.665,0,1.267.006,1.869,0a1.67,1.67,0,1,0,.009-3.336c-.6-.011-1.2,0-1.878,0" fill="#0077b6"/>
    </g>
</svg>

