<svg id="Group_30203" data-name="Group 30203" xmlns="http://www.w3.org/2000/svg" xmlns:xlink="http://www.w3.org/1999/xlink" width="63" height="51" viewbox="0 0 63 51">
    <defs>
        <clipPath id="clip-path">
            <rect id="Rectangle_5276" data-name="Rectangle 5276" width="63" height="51" fill="#0077b6"/>
        </clipPath>
    </defs>
    <g id="Group_30202" data-name="Group 30202" clip-path="url(#clip-path)">
        <path id="Path_34067" data-name="Path 34067" d="M62.576,69.541c-.491-.1-.8-.154-1.1-.238-2.771-.78-5.549-1.54-8.3-2.371a5.612,5.612,0,0,1-1.82-.987c-2.013-1.605-3.974-3.273-5.97-4.9a2.806,2.806,0,0,0-.95-.486q-8.239-2.46-16.487-4.893A6.966,6.966,0,0,1,24.5,53.418c-2.853-3.364-5.8-6.653-8.634-10.031a7.684,7.684,0,0,1-1.389-2.627c-1.228-3.98-2.354-7.989-3.529-11.985a4.447,4.447,0,0,0-2.7-2.983Q4.4,24.192.578,22.533C.333,22.426.19,22.094,0,21.866c.29-.081.614-.29.866-.225q5.448,1.4,10.878,2.863A3.869,3.869,0,0,1,14.57,27.11c1.16,3.251,2.4,6.477,3.678,9.686a7.167,7.167,0,0,0,1.39,2.214c2.4,2.553,4.864,5.047,7.321,7.547a2,2,0,0,0,.841.505q6.252,1.763,12.518,3.48a7.98,7.98,0,0,1,3.656,2.093c2.844,2.861,5.778,5.642,8.51,8.6,1.925,2.087,4.368,3.264,6.839,4.471,1.02.5,2.041.995,3.048,1.516a1.887,1.887,0,0,1,.791.6,1.486,1.486,0,0,1,.2,1.09c-.109.293-.561.463-.787.631" transform="translate(-0.586 -18.541)" fill="#0077b6"/>
        <path id="Path_34068" data-name="Path 34068" d="M85.013,272l-.4-2.226c.971.521,1.76.975,2.579,1.368a2.459,2.459,0,0,0,1.089.252,11.726,11.726,0,0,1,6.8,1.914c.931.595.925.949-.018,1.551a11.952,11.952,0,0,1-6.516,1.916,4.341,4.341,0,0,0-1.63.391c-.726.31-1.4.734-2.3,1.219l.4-2.255c-1.391-.322-2.791-.663-4.2-.954a1.213,1.213,0,0,0-.73.222c-.809.467-1.6.962-2.6,1.567a9.3,9.3,0,0,1,.351-1.722,2.694,2.694,0,0,0,.013-2.3,9.1,9.1,0,0,1-.373-1.758c.935.571,1.668,1.072,2.453,1.475a2.171,2.171,0,0,0,1.28.271c1.275-.247,2.528-.609,3.8-.93" transform="translate(-62.567 -231.259)" fill="#0077b6"/>
        <path id="Path_34069" data-name="Path 34069" d="M106.4,22.664c-1.146-1.187-2.251-2.252-3.255-3.4a2.562,2.562,0,0,1-.528-2.286c.389-1.863.739-3.733,1.12-5.6a4.635,4.635,0,0,0-.992-4.14C101,5.139,99.3,2.994,97.589.868c-.208-.257-.543-.557-.128-.826a.9.9,0,0,1,.8.167q4.236,3.86,8.421,7.771a3.642,3.642,0,0,1,1.088,3.379c-.476,3.511-.823,7.039-1.225,10.559-.023.2-.079.405-.147.745" transform="translate(-79.47 0)" fill="#0077b6"/>
        <path id="Path_34070" data-name="Path 34070" d="M211.816,167.15l-3.745-1.024c-1.866-.511-3.732-1.019-5.6-1.537-1.077-.3-1.324-.736-1.029-1.793.249-.894.489-1.79.766-2.676a1.109,1.109,0,0,1,1.454-.833c3.125.856,6.243,1.734,9.363,2.607a1.319,1.319,0,0,1,.234.135l-1.446,5.119" transform="translate(-168.39 -136.5)" fill="#0077b6"/>
        <path id="Path_34071" data-name="Path 34071" d="M228.89,68.737l-.36-1.968c.8.433,1.438.823,2.115,1.123a3.345,3.345,0,0,0,1.362.329A10.253,10.253,0,0,1,237.9,69.96c.774.5.778.8,0,1.308a9.735,9.735,0,0,1-5.534,1.705,3.749,3.749,0,0,0-2.183.578c-.48.306-1,.55-1.66.907l.379-2.023c-1.238-.285-2.474-.589-3.722-.838a1.241,1.241,0,0,0-.728.232,16.587,16.587,0,0,1-2.253,1.165c.162-.63.35-1.254.475-1.891a2.626,2.626,0,0,0,0-.992c-.127-.637-.315-1.261-.479-1.891l.172-.092c.589.36,1.2.684,1.758,1.091a1.874,1.874,0,0,0,1.7.339q1.533-.411,3.069-.82" transform="translate(-186.215 -57.237)" fill="#0077b6"/>
        <path id="Path_34072" data-name="Path 34072" d="M317.8,226.5l-4.426-4.374c.273-.44.561-.878.824-1.33a2.728,2.728,0,0,1,3.331-1.5,3.221,3.221,0,0,1,2.8,2.789A4.426,4.426,0,0,1,317.8,226.5" transform="translate(-264.125 -187.907)" fill="#0077b6"/>
        <path id="Path_34073" data-name="Path 34073" d="M278.471,185.177l1.446-5.123c1.4.22,2.558.68,3.013,2.066a2.49,2.49,0,0,1-.8,2.838c-1.119.963-2.342.8-3.658.219" transform="translate(-234.301 -154.348)" fill="#0077b6"/>
        <path id="Path_34074" data-name="Path 34074" d="M346.286,123.9a4.383,4.383,0,0,1-2.453,1.264c-.892.2-1.794.361-2.7.54l.086-.671c-1.115-.485-2.208-.857-3.174.27v-2.494c.931.949,2.02.761,3.176.226l-.087-.666c1.024.2,2.052.339,3.041.614a16.5,16.5,0,0,1,2.11.916" transform="translate(-285.204 -104.899)" fill="#0077b6"/>
    </g>
</svg>

