<svg xmlns="http://www.w3.org/2000/svg" width="115" height="15.002" viewBox="0 0 115 15.002">
  <g id="Group_27562" data-name="Group 27562" transform="translate(12654 6145.999)">
    <path id="Icon_awesome-star" data-name="Icon awesome-star" d="M8.137.521,6.306,4.4l-4.1.624a.95.95,0,0,0-.5,1.6L4.677,9.641l-.7,4.263a.905.905,0,0,0,1.3.987l3.664-2.013,3.664,2.013a.906.906,0,0,0,1.3-.987l-.7-4.263,2.964-3.018a.95.95,0,0,0-.5-1.6l-4.1-.624L9.746.521a.881.881,0,0,0-1.609,0Z" transform="translate(-12555.441 -6145.999)" fill="#ebebeb"/>
    <path id="Icon_awesome-star-2" data-name="Icon awesome-star" d="M8.137.521,6.306,4.4l-4.1.624a.95.95,0,0,0-.5,1.6L4.677,9.641l-.7,4.263a.905.905,0,0,0,1.3.987l3.664-2.013,3.664,2.013a.906.906,0,0,0,1.3-.987l-.7-4.263,2.964-3.018a.95.95,0,0,0-.5-1.6l-4.1-.624L9.746.521a.881.881,0,0,0-1.609,0Z" transform="translate(-12580.441 -6145.999)" fill="#e89005"/>
    <path id="Icon_awesome-star-3" data-name="Icon awesome-star" d="M8.137.521,6.306,4.4l-4.1.624a.95.95,0,0,0-.5,1.6L4.677,9.641l-.7,4.263a.905.905,0,0,0,1.3.987l3.664-2.013,3.664,2.013a.906.906,0,0,0,1.3-.987l-.7-4.263,2.964-3.018a.95.95,0,0,0-.5-1.6l-4.1-.624L9.746.521a.881.881,0,0,0-1.609,0Z" transform="translate(-12605.441 -6145.999)" fill="#e89005"/>
    <path id="Icon_awesome-star-4" data-name="Icon awesome-star" d="M8.137.521,6.306,4.4l-4.1.624a.95.95,0,0,0-.5,1.6L4.677,9.641l-.7,4.263a.905.905,0,0,0,1.3.987l3.664-2.013,3.664,2.013a.906.906,0,0,0,1.3-.987l-.7-4.263,2.964-3.018a.95.95,0,0,0-.5-1.6l-4.1-.624L9.746.521a.881.881,0,0,0-1.609,0Z" transform="translate(-12630.441 -6145.999)" fill="#e89005"/>
    <path id="Icon_awesome-star-5" data-name="Icon awesome-star" d="M8.137.521,6.306,4.4l-4.1.624a.95.95,0,0,0-.5,1.6L4.677,9.641l-.7,4.263a.905.905,0,0,0,1.3.987s1.832-2.013,3.664-2.013,3.664,2.013,3.664,2.013a.906.906,0,0,0,1.3-.987l-.7-4.263,2.964-3.018a.95.95,0,0,0-.5-1.6l-4.1-.624L9.746.521a.881.881,0,0,0-1.609,0Z" transform="translate(-12655.441 -6145.999)" fill="#e89005"/>
  </g>
</svg>
