<svg xmlns="http://www.w3.org/2000/svg" xmlns:xlink="http://www.w3.org/1999/xlink" width="53" height="53" viewBox="0 0 53 53">
    <defs>
        <clipPath id="clip-path">
            <rect id="Rectangle_5311" data-name="Rectangle 5311" width="53" height="53" fill="#0077b6"/>
        </clipPath>
    </defs>
    <g id="Group_30284" data-name="Group 30284" clip-path="url(#clip-path)">
        <path id="Path_34266" data-name="Path 34266" d="M53,32.917c-.675,1.08-1.053,1.213-2.3.808-.621-.2-1.243-.395-1.859-.612a1.381,1.381,0,1,1,.83-2.633c.789.234,1.565.515,2.35.767A1.622,1.622,0,0,1,53,32.3Z" fill="#0077b6"/>
        <path id="Path_34267" data-name="Path 34267" d="M41.945,1.587a1.44,1.44,0,0,1,1.274,2.08A20.6,20.6,0,0,1,41.5,6.045a1.3,1.3,0,0,1-1.777.169,1.3,1.3,0,0,1-.416-1.737,26.611,26.611,0,0,1,1.764-2.41c.195-.238.578-.324.874-.48" fill="#0077b6"/>
        <path id="Path_34268" data-name="Path 34268" d="M9.554,3a1.46,1.46,0,0,1,.922-1.239,1.216,1.216,0,0,1,1.461.325,25.873,25.873,0,0,1,1.726,2.373,1.363,1.363,0,0,1-2.215,1.555c-.59-.736-1.132-1.513-1.664-2.294A2.652,2.652,0,0,1,9.554,3" fill="#0077b6"/>
        <path id="Path_34269" data-name="Path 34269" d="M5.157,31.91a1.248,1.248,0,0,1-.866,1.14c-.855.31-1.72.594-2.594.846A1.345,1.345,0,0,1,.1,33.073a1.291,1.291,0,0,1,.632-1.708,19.518,19.518,0,0,1,2.834-.919A1.336,1.336,0,0,1,5.157,31.91" fill="#0077b6"/>
        <path id="Path_34270" data-name="Path 34270" d="M27.854,50.387c0,.448.025.9-.006,1.344a1.358,1.358,0,0,1-2.712-.022c-.034-.9-.034-1.793,0-2.689a1.318,1.318,0,0,1,1.343-1.292,1.332,1.332,0,0,1,1.376,1.315c.026.446,0,.9,0,1.344h0" fill="#0077b6"/>
        <path id="Path_34271" data-name="Path 34271" d="M48.707,20.616a3.539,3.539,0,0,0,1.2-2.648A3.466,3.466,0,0,0,46.849,14.5c-3.752-.545-7.5-1.1-11.257-1.632a1.11,1.11,0,0,1-.927-.7c-1.647-3.356-3.311-6.7-4.961-10.06a3.5,3.5,0,0,0-6.434.018c-1.639,3.342-3.3,6.674-4.935,10.016a1.159,1.159,0,0,1-.962.733C13.636,13.4,9.9,13.951,6.168,14.5a3.491,3.491,0,0,0-1.983,6.02q4.039,3.938,8.084,7.872a1.193,1.193,0,0,1,.4,1.19c-.617,3.46-1.2,6.927-1.793,10.392a5.148,5.148,0,0,0-.06,2.4,3.482,3.482,0,0,0,5.039,2.075q5-2.6,9.974-5.246a1.274,1.274,0,0,1,1.349.006c1.865,1.007,3.747,1.982,5.623,2.967,1.511.792,3.009,1.611,4.539,2.363a3.46,3.46,0,0,0,4.907-3.668q-.94-5.659-1.932-11.312a1.153,1.153,0,0,1,.381-1.146c2.676-2.594,5.338-5.2,8.013-7.8" fill="#0077b6"/>
    </g>
</svg>

