<svg id="Group_30210" data-name="Group 30210" xmlns="http://www.w3.org/2000/svg" xmlns:xlink="http://www.w3.org/1999/xlink" width="51" height="48" viewbox="0 0 51 48">
    <defs>
        <clipPath id="clip-path">
            <rect id="Rectangle_5279" data-name="Rectangle 5279" width="51" height="48" fill="#0077b6"/>
        </clipPath>
    </defs>
    <g id="Group_30210-2" data-name="Group 30210" clip-path="url(#clip-path)">
        <path id="Path_34088" data-name="Path 34088" d="M.228,73.827c2.41-2.236,5.219-3.552,8.523-3.025a31.59,31.59,0,0,1,5.08,1.676C10.583,65.052,12,58.687,19.187,54.261A12.865,12.865,0,0,1,34.5,56.071c3.691,3.344,6.164,9.71,2.456,16.819,5.08-3.407,9.624-2.662,13.9.938.252.229.267.517,0,.9-.863,1.191-1.308,1.314-2.635.676-.471-.227-.92-.5-1.371-.766a6.463,6.463,0,0,0-7.11.032,9.5,9.5,0,0,1-10.773-.016,6.219,6.219,0,0,0-7,0,9.8,9.8,0,0,1-10.805.059,7.089,7.089,0,0,0-3.909-.994A14.736,14.736,0,0,0,3.021,75.3c-1.408.617-1.911.553-2.793-.569a.708.708,0,0,1,0-.9" transform="translate(-1.143 -40.654)" fill="#0077b6"/>
        <path id="Path_34089" data-name="Path 34089" d="M.179,189.792c-.092-.136-.351-.59,0-.9.7-.537,1.356-1.138,2.1-1.6a9.371,9.371,0,0,1,10.494-.058,6.587,6.587,0,0,0,7.407.037,9.348,9.348,0,0,1,10.488.013,6.429,6.429,0,0,0,7.3-.018,9.351,9.351,0,0,1,6.1-1.527,11.214,11.214,0,0,1,6.741,3.152.661.661,0,0,1,0,.9c-.834,1.066-1.381,1.215-2.593.65-.472-.22-.912-.512-1.363-.776a6.562,6.562,0,0,0-7.219.04,9.448,9.448,0,0,1-10.679-.026,6.32,6.32,0,0,0-7.1.014,9.7,9.7,0,0,1-10.706.042,10.258,10.258,0,0,0-3.808-1.051c-1.7-.209-3.02.924-4.454,1.63-1.363.672-1.729.577-2.708-.522" transform="translate(-1.094 -143.748)" fill="#0077b6"/>
        <path id="Path_34090" data-name="Path 34090" d="M.213,163.435a.86.86,0,0,1-.04-.95,4.882,4.882,0,0,1,.737-.646c3.96-2.643,8-3.328,12.27-.638a6.01,6.01,0,0,0,6.7.023,9.8,9.8,0,0,1,11.088-.028,6.173,6.173,0,0,0,6.9-.073,9.662,9.662,0,0,1,6.737-1.53,10.455,10.455,0,0,1,6.236,3.165.924.924,0,0,1,0,.9c-1.066,1.11-1.392,1.168-2.817.448-.4-.2-.778-.447-1.164-.674a6.484,6.484,0,0,0-7.115.01,9.6,9.6,0,0,1-10.87-.04,6.086,6.086,0,0,0-6.793-.031,9.664,9.664,0,0,1-11.066-.009,5.324,5.324,0,0,0-4.4-.817,32.305,32.305,0,0,0-3.785,1.6c-1.418.621-1.742.537-2.62-.711" transform="translate(-1.128 -123.488)" fill="#0077b6"/>
        <path id="Path_34091" data-name="Path 34091" d="M.794,106.612a2,2,0,0,1,1.972-.973c1.722.052,3.446.008,5.169.018,1.217.007,1.869.535,1.854,1.466-.014.89-.713,1.429-1.9,1.436-1.686.01-3.373-.037-5.056.019a1.986,1.986,0,0,1-2.036-1.063Z" transform="translate(-1.709 -81.793)" fill="#0077b6"/>
        <path id="Path_34092" data-name="Path 34092" d="M194.811,107.515a1.986,1.986,0,0,1-2.036,1.063c-1.684-.055-3.371-.008-5.057-.018-1.194-.008-1.89-.544-1.9-1.436-.014-.932.637-1.459,1.854-1.466,1.723-.011,3.447.033,5.169-.018a2,2,0,0,1,1.972.973Z" transform="translate(-145.099 -81.794)" fill="#0077b6"/>
        <path id="Path_34093" data-name="Path 34093" d="M106.744,4.417c0-.941-.007-1.881,0-2.821a1.467,1.467,0,1,1,2.921.034q.038,2.821,0,5.642a1.441,1.441,0,0,1-1.478,1.615c-.88-.012-1.422-.614-1.442-1.648-.019-.94,0-1.881,0-2.821" transform="translate(-83.815 0)" fill="#0077b6"/>
        <path id="Path_34094" data-name="Path 34094" d="M39.383,36.666c-.314.376-.567.948-.97,1.087a1.8,1.8,0,0,1-1.526-.183c-1.525-1.389-2.973-2.867-4.393-4.366a1.319,1.319,0,0,1,.075-1.93,1.272,1.272,0,0,1,1.914-.137c1.53,1.44,2.991,2.955,4.451,4.468a3.755,3.755,0,0,1,.449,1.06" transform="translate(-25.978 -23.821)" fill="#0077b6"/>
        <path id="Path_34095" data-name="Path 34095" d="M168.342,30.343c.39.3.972.532,1.129.93a1.8,1.8,0,0,1-.11,1.544c-1.409,1.558-2.907,3.04-4.435,4.483a1.276,1.276,0,0,1-1.911-.14,1.294,1.294,0,0,1-.068-1.924c1.416-1.5,2.89-2.951,4.367-4.395a4.1,4.1,0,0,1,1.029-.5" transform="translate(-127.068 -23.494)" fill="#0077b6"/>
        <path id="Path_34096" data-name="Path 34096" d="M72.513,20.736a3.7,3.7,0,0,1,1,.92,18.258,18.258,0,0,1,1.156,2.668,1.381,1.381,0,0,1-.809,1.93,1.311,1.311,0,0,1-1.843-.757,25.318,25.318,0,0,1-1.225-2.884c-.33-.96.349-1.842,1.72-1.878" transform="translate(-55.894 -16.056)" fill="#0077b6"/>
        <path id="Path_34097" data-name="Path 34097" d="M26.154,75.559a36.887,36.887,0,0,1-3.978-1.933c-.3-.186-.341-1.24-.1-1.679a1.681,1.681,0,0,1,1.48-.615,10.919,10.919,0,0,1,3.087,1.262,1.873,1.873,0,0,1,.666,1.557c-.072.486-.7.889-1.151,1.407" transform="translate(-18.081 -55.216)" fill="#0077b6"/>
        <path id="Path_34098" data-name="Path 34098" d="M181.88,75.461c-.431-.445-1.078-.814-1.176-1.3a1.831,1.831,0,0,1,.579-1.586,12.2,12.2,0,0,1,3.3-1.334,1.644,1.644,0,0,1,1.416.751,1.786,1.786,0,0,1-.273,1.666,32.784,32.784,0,0,1-3.843,1.8" transform="translate(-141.122 -55.152)" fill="#0077b6"/>
        <path id="Path_34099" data-name="Path 34099" d="M142.367,21.943a35.193,35.193,0,0,1-1.889,3.877,1.666,1.666,0,0,1-1.636.209,1.96,1.96,0,0,1-.676-1.657,14.624,14.624,0,0,1,1.247-2.985,1.251,1.251,0,0,1,1.708-.639c.47.2.8.745,1.245,1.194" transform="translate(-108.155 -15.969)" fill="#0077b6"/>
    </g>
</svg>

