<svg id="Complete_Icon" data-name="Complete Icon" xmlns="http://www.w3.org/2000/svg" width="20" height="20" viewBox="0 0 20 20">
  <path id="Complete_Icon-2" data-name="Complete Icon" d="M163.38,469.75a10,10,0,1,0,10,10A10,10,0,0,0,163.38,469.75Zm4.875,8.162-5.45,5.438a1.223,1.223,0,0,1-1.762,0l-2.538-2.525a1.245,1.245,0,0,1,0-1.762,1.26,1.26,0,0,1,1.775,0l1.638,1.638,4.562-4.55a1.26,1.26,0,0,1,1.775,0A1.245,1.245,0,0,1,168.255,477.912Z" transform="translate(-153.38 -469.75)" fill="#0077b6" fill-rule="evenodd"/>
</svg>
