<svg xmlns="http://www.w3.org/2000/svg" width="34.025" height="34.021" viewBox="0 0 34.025 34.021">
  <g id="Icon" transform="translate(-17.674 -17.677)">
    <path id="Icon-2" data-name="Icon" d="M.449,31.423a1.289,1.289,0,0,1,2.2-1.35.8.8,0,0,0,.38.313,1.225,1.225,0,0,1,.244-.025.653.653,0,0,0,.645-.643,1.04,1.04,0,0,0-.439-.342,1.284,1.284,0,0,1-.1-2.36h0l-.011,0c.275-.139.553-.42.553-.52a.654.654,0,0,0-.645-.643H3.222a.682.682,0,0,0-.578.288A1.288,1.288,0,0,1,.449,24.8a3.265,3.265,0,0,1,2.773-1.512h.046A3.223,3.223,0,0,1,6.491,26.5a2.722,2.722,0,0,1-.548,1.626,2.593,2.593,0,0,1,.548,1.59A3.222,3.222,0,0,1,3.706,32.9a1.259,1.259,0,0,1-.484.1A3.3,3.3,0,0,1,.449,31.423ZM11.731,29.4a1.286,1.286,0,1,1,0-2.573H31.711a1.286,1.286,0,1,1,0,2.573ZM1.289,21.034a1.286,1.286,0,0,1-.866-2.24c.01-.006.9-.818,1.8-1.808,1.516-1.669,1.676-2.331,1.688-2.4a.653.653,0,0,0-.645-.63H3.222a.653.653,0,0,0-.645.643A1.289,1.289,0,0,1,0,14.6a3.223,3.223,0,0,1,3.222-3.215h.046A3.221,3.221,0,0,1,6.491,14.6c0,.679-.245,1.73-2.127,3.86h.922a1.286,1.286,0,1,1,0,2.573Zm10.442-3.281a1.286,1.286,0,1,1,0-2.573H31.711a1.286,1.286,0,1,1,0,2.573ZM2.578,7.718V3.91l-.5.387A1.288,1.288,0,0,1,.5,2.263L3.078.269A1.29,1.29,0,0,1,5.157,1.285V7.718a1.289,1.289,0,0,1-2.579,0Zm9.154-1.929a1.286,1.286,0,1,1,0-2.573H31.711a1.286,1.286,0,1,1,0,2.573Z" transform="translate(18.199 18.2)" fill="#0092e0" stroke="rgba(0,0,0,0)" stroke-miterlimit="10" stroke-width="1"/>
  </g>
</svg>
